<svg width="102" height="101" viewBox="0 0 102 101" fill="none" xmlns="http://www.w3.org/2000/svg">
<g clip-path="url(#clip0_1309_4844)">
<g clip-path="url(#clip1_1309_4844)">
<path d="M71.6848 22.3391C71.4681 22.122 71.1739 22 70.867 22H31.1554C30.5174 22 30 22.5172 30 23.1554V78.8446C30 79.4828 30.5174 80 31.1554 80H70.7682C71.4055 80 71.9224 79.484 71.9236 78.8467L72.0225 23.1574C72.023 22.8506 71.9016 22.5562 71.6848 22.3391ZM69.6148 77.6893H32.3107V24.3107H69.7097L69.6148 77.6893Z" fill="#2156B1"/>
<path d="M67.8556 70.2963L62.5581 64.9517C62.5707 64.7935 62.5791 64.6339 62.5791 64.4722C62.5791 61.1844 59.9044 58.5098 56.6168 58.5098C53.3291 58.5098 50.6545 61.1844 50.6545 64.4722C50.6545 64.6318 50.6626 64.7897 50.6751 64.9463L45.3408 70.294C45.0279 70.6076 44.922 71.0727 45.0681 71.491C45.2144 71.9094 45.5868 72.2073 46.0271 72.2577L48.5428 72.5464L48.8314 75.0621C48.8821 75.5029 49.1804 75.8757 49.5994 76.0216C49.7235 76.0647 49.8519 76.0858 49.9788 76.0858C50.2807 76.0858 50.5766 75.9674 50.7971 75.7463L56.1178 70.4122C56.2824 70.4259 56.4486 70.4347 56.6167 70.4347C56.783 70.4347 56.9471 70.426 57.1099 70.4126L62.3939 75.7436C62.6146 75.9662 62.9114 76.0857 63.2147 76.0857C63.3413 76.0857 63.4689 76.0648 63.5926 76.022C64.0125 75.8767 64.3118 75.5034 64.3624 75.0619L64.6511 72.5461L67.1668 72.2574C67.6064 72.2068 67.9786 71.9099 68.1251 71.4924C68.2718 71.0751 68.1671 70.6106 67.8556 70.2963ZM50.8537 72.4175L50.7336 71.3715C50.6724 70.8377 50.2513 70.4165 49.7175 70.3554L48.6638 70.2345L51.4496 67.4417C51.9728 68.3487 52.7275 69.1054 53.6331 69.6312L50.8537 72.4175ZM56.6167 68.1237C54.6032 68.1237 52.9651 66.4857 52.9651 64.4721C52.9649 62.4585 54.603 60.8204 56.6167 60.8204C58.6302 60.8204 60.2683 62.4584 60.2683 64.4721C60.2683 66.4857 58.6302 68.1237 56.6167 68.1237ZM63.4762 70.3552C62.9424 70.4165 62.5212 70.8376 62.4601 71.3714L62.3412 72.4079L59.5931 69.6353C60.4994 69.1108 61.2552 68.3552 61.7797 67.4489L64.5396 70.2332L63.4762 70.3552Z" fill="#2156B1"/>
<path d="M45.812 61.8604H36.9156C36.2776 61.8604 35.7602 62.3776 35.7602 63.0157C35.7602 63.6538 36.2776 64.1711 36.9156 64.1711H45.812C46.45 64.1711 46.9674 63.6538 46.9674 63.0157C46.9674 62.3777 46.45 61.8604 45.812 61.8604Z" fill="#2156B1"/>
<path d="M55.6905 28.9326H46.3319C45.6939 28.9326 45.1765 29.4499 45.1765 30.088C45.1765 30.7261 45.6939 31.2433 46.3319 31.2433H55.6905C56.3285 31.2433 56.8458 30.7261 56.8458 30.088C56.8458 29.4499 56.3285 28.9326 55.6905 28.9326Z" fill="#2156B1"/>
<path d="M64.5869 33.7852H37.4354C36.7974 33.7852 36.2801 34.3024 36.2801 34.9405C36.2801 35.5786 36.7974 36.0959 37.4354 36.0959H64.5868C65.2248 36.0959 65.7422 35.5786 65.7422 34.9405C65.7422 34.3024 65.2249 33.7852 64.5869 33.7852Z" fill="#2156B1"/>
<path d="M59.5032 41.7568H47.314C46.676 41.7568 46.1587 42.2741 46.1587 42.9122C46.1587 43.5503 46.676 44.0675 47.314 44.0675H59.5033C60.1413 44.0675 60.6587 43.5503 60.6587 42.9122C60.6587 42.2741 60.1412 41.7568 59.5032 41.7568Z" fill="#2156B1"/>
<path d="M43.1546 41.7568H42.519C41.881 41.7568 41.3637 42.2741 41.3637 42.9122C41.3637 43.5503 41.881 44.0675 42.519 44.0675H43.1546C43.7926 44.0675 44.3099 43.5503 44.3099 42.9122C44.3099 42.2741 43.7926 41.7568 43.1546 41.7568Z" fill="#2156B1"/>
<path d="M59.5032 46.2627H47.314C46.676 46.2627 46.1587 46.7799 46.1587 47.4181C46.1587 48.0562 46.676 48.5734 47.314 48.5734H59.5033C60.1413 48.5734 60.6587 48.0562 60.6587 47.4181C60.6585 46.7799 60.1412 46.2627 59.5032 46.2627Z" fill="#2156B1"/>
<path d="M43.1546 46.2627H42.519C41.881 46.2627 41.3637 46.7799 41.3637 47.4181C41.3637 48.0562 41.881 48.5734 42.519 48.5734H43.1546C43.7926 48.5734 44.3099 48.0562 44.3099 47.4181C44.31 46.7799 43.7926 46.2627 43.1546 46.2627Z" fill="#2156B1"/>
<path d="M59.5032 50.8848H47.314C46.676 50.8848 46.1587 51.402 46.1587 52.0401C46.1587 52.6782 46.676 53.1955 47.314 53.1955H59.5033C60.1413 53.1955 60.6587 52.6782 60.6587 52.0401C60.6585 51.402 60.1412 50.8848 59.5032 50.8848Z" fill="#2156B1"/>
<path d="M43.1546 50.8848H42.519C41.881 50.8848 41.3637 51.402 41.3637 52.0401C41.3637 52.6782 41.881 53.1955 42.519 53.1955H43.1546C43.7926 53.1955 44.3099 52.6782 44.3099 52.0401C44.31 51.402 43.7926 50.8848 43.1546 50.8848Z" fill="#2156B1"/>
</g>
</g>
<defs>
<clipPath id="clip0_1309_4844">
<rect y="0.719727" width="102" height="100" rx="14" fill="white"/>
</clipPath>
<clipPath id="clip1_1309_4844">
<rect width="102" height="100" fill="white" transform="translate(0 0.719727)"/>
</clipPath>
</defs>
</svg>
