<svg width="102" height="101" viewBox="0 0 102 101" fill="none" xmlns="http://www.w3.org/2000/svg">
<g clip-path="url(#clip0_1309_4830)">
<path d="M58.9294 62.5737C56.247 63.3931 53.3673 63.2926 50.7486 62.2882C48.13 61.2838 45.9227 59.4332 44.4779 57.0308C43.0333 54.6284 42.4342 51.8121 42.776 49.0302C43.1179 46.2483 44.381 43.6606 46.3645 41.6787C48.3481 39.697 50.938 38.435 53.7221 38.0936C56.5062 37.7521 59.3247 38.3509 61.729 39.7945C64.1333 41.2381 65.9854 43.4436 66.9906 46.0602C67.9958 48.6768 68.0964 51.5541 67.2763 54.2344M60.2942 55.6637L67.8266 63.19M34 62.8059V39.1714" stroke="#2156B1" stroke-width="2.6" stroke-miterlimit="0" stroke-linecap="round" stroke-linejoin="round"/>
<path d="M79.6848 22.3391C79.4681 22.122 79.1739 22 78.867 22H23.1554C22.5174 22 22 22.5172 22 23.1554V78.8446C22 79.4828 22.5174 80 23.1554 80H78.7682C79.4055 80 79.9224 79.484 79.9236 78.8467L80.0225 23.1574C80.023 22.8506 79.9016 22.5562 79.6848 22.3391ZM77.6148 77.6893H24.3107V24.3107H77.7097L77.6148 77.6893Z" fill="#2156B1"/>
</g>
<defs>
<clipPath id="clip0_1309_4830">
<rect width="102" height="100" fill="white" transform="translate(0 0.719727)"/>
</clipPath>
</defs>
</svg>
