<svg width="102" height="101" viewBox="0 0 102 101" fill="none" xmlns="http://www.w3.org/2000/svg">
<g clip-path="url(#clip0_1309_4862)">
<g clip-path="url(#clip1_1309_4862)">
<path d="M68.0385 39.3124C67.8957 39.1669 67.7355 39.0337 67.5595 38.9155L67.379 38.8776C67.2845 38.8362 67.2092 38.7683 67.1601 38.6862C66.8781 38.5522 66.5829 38.4658 66.2826 38.4226C66.0233 38.3863 65.8412 38.1439 65.8789 37.881C65.9138 37.6181 66.1564 37.4348 66.4157 37.4709C66.7126 37.515 67.0102 37.5909 67.2958 37.7038C67.3422 37.4938 67.3684 37.2795 67.3684 37.0635C67.3675 36.5907 67.2573 36.1136 67.0225 35.6647C66.7545 35.1515 66.3614 34.7511 65.9015 34.4778C65.4987 34.2379 65.0433 34.095 64.5757 34.0615C64.5416 34.4909 64.44 34.9187 64.2631 35.3332C64.1579 35.5765 63.8786 35.6886 63.6361 35.5836C63.3943 35.4795 63.2823 35.1974 63.3865 34.9539C63.5563 34.5545 63.6361 34.1435 63.6379 33.736L63.6317 33.5623C63.5993 32.9979 63.4137 32.4529 63.0975 31.9882C62.7813 31.5242 62.3382 31.1441 61.7866 30.9034C61.3907 30.7332 60.9809 30.6529 60.5771 30.6529C59.8038 30.6529 59.055 30.9529 58.4894 31.4819C58.5953 31.8444 58.6557 32.2262 58.6557 32.6231C58.6557 32.8877 58.4403 33.1029 58.1776 33.1029C57.9148 33.1029 57.7003 32.8877 57.7003 32.6231C57.7003 32.2342 57.6294 31.8655 57.4998 31.5225H57.5007C57.2808 30.9449 56.892 30.4475 56.3937 30.0965C55.8972 29.7456 55.2955 29.54 54.6405 29.54C54.0722 29.54 53.5423 29.6962 53.087 29.966C52.7226 30.1829 52.4083 30.4757 52.1614 30.8197C52.6439 31.4855 52.9293 32.3083 52.9293 33.1956C52.9293 33.4601 52.7148 33.6744 52.4512 33.6744C52.1884 33.6744 51.9739 33.4601 51.9739 33.1956C51.9739 32.416 51.6892 31.7069 51.2155 31.1645C50.6534 30.518 49.8328 30.1134 48.9132 30.1134C48.2749 30.1134 47.6872 30.3082 47.1959 30.6434C46.7063 30.9785 46.3166 31.453 46.0863 32.0103C45.9375 32.3745 45.8524 32.7758 45.8524 33.1956C45.8524 33.4601 45.6396 33.6744 45.3761 33.6744C45.1124 33.6744 44.8997 33.4601 44.8997 33.1956C44.8997 32.8057 44.9558 32.4301 45.0573 32.072C44.6983 31.9256 44.3095 31.8445 43.9102 31.8445C43.6834 31.8445 43.4557 31.8709 43.2245 31.923C42.5449 32.0809 41.9765 32.4495 41.5605 32.9486C41.261 33.3085 41.0473 33.7361 40.9361 34.1956C41.9214 34.2132 42.9056 34.5968 43.6659 35.3464C43.8533 35.5325 43.8568 35.8359 43.6729 36.0246C43.4881 36.2151 43.1868 36.2169 42.9986 36.0325C42.4013 35.4461 41.6316 35.1524 40.8573 35.1515C40.719 35.1515 40.5806 35.1611 40.4422 35.1788H40.4405H40.4396C39.7907 35.2696 39.1655 35.5676 38.6689 36.0775C38.0856 36.6771 37.7966 37.4515 37.7958 38.2329C37.7958 38.6783 37.8921 39.1271 38.0847 39.5398C38.2344 39.8652 38.4446 40.1686 38.7161 40.4349V40.4357C39.0227 40.7391 39.3765 40.9631 39.754 41.1095C39.9982 41.2057 40.1218 41.4835 40.0255 41.7303C39.9301 41.9791 39.655 42.1026 39.409 42.0055C38.916 41.8132 38.4501 41.5188 38.0471 41.121C37.8712 40.9464 37.7143 40.7603 37.5752 40.5628C37.2153 41.0823 37.02 41.7039 37.02 42.3372C37.02 42.8276 37.1365 43.3223 37.3825 43.787C37.6592 44.3074 38.0595 44.7131 38.5307 44.9899C38.9028 45.2095 39.3188 45.348 39.748 45.3965L39.7471 45.3674C39.7471 45.1133 39.7708 44.8647 39.8137 44.6231C39.8627 44.362 40.1123 44.1917 40.3698 44.2385C40.629 44.287 40.7998 44.5374 40.7533 44.7984C40.7191 44.9827 40.7008 45.1741 40.7008 45.3673L40.7086 45.5905L40.734 45.8154V45.818L40.7349 45.8224C40.9539 47.3287 42.2465 48.4548 43.7597 48.4548L43.9796 48.446H43.9805C44.6512 48.3975 45.2537 48.1364 45.7319 47.7299C46.0673 47.445 46.3422 47.0879 46.5306 46.6856C46.6417 46.4448 46.9281 46.3427 47.1655 46.4563C47.4037 46.5693 47.5053 46.8549 47.3932 47.0949C47.1892 47.5279 46.9106 47.9186 46.5762 48.251C46.7635 48.8313 47.1155 49.3296 47.5754 49.7C48.1009 50.1242 48.7637 50.3747 49.4801 50.3747L49.7008 50.3659H49.7017C50.1553 50.3333 50.5748 50.2018 50.9471 49.9972C50.8892 49.7212 50.856 49.4391 50.856 49.1533C50.856 48.5641 50.9865 47.9636 51.2562 47.3991C51.3709 47.1602 51.6555 47.0605 51.892 47.176C52.1293 47.2898 52.2301 47.5773 52.1153 47.8163C51.9078 48.2493 51.8106 48.7044 51.8106 49.1533C51.8106 49.4672 51.8587 49.7803 51.9516 50.0774H51.9524C52.1968 50.8615 52.7486 51.5467 53.5428 51.9312C53.9719 52.1402 54.4238 52.2381 54.8687 52.2381C55.5754 52.2381 56.2664 51.9893 56.8146 51.5387L56.8164 51.5378C57.1492 51.2618 57.4277 50.9125 57.6281 50.4954L57.629 50.4936C57.8156 50.1039 57.9137 49.6956 57.9302 49.2881C57.9425 49.0235 58.1641 48.8171 58.4285 48.8295C58.6913 48.841 58.8944 49.0649 58.883 49.3295C58.8602 49.8639 58.7315 50.4036 58.4872 50.9124V50.9115C58.291 51.3234 58.0327 51.6859 57.7297 51.9954C58.2919 52.8085 59.2272 53.3209 60.2387 53.32C60.426 53.32 60.617 53.3025 60.8088 53.2654C61.5453 53.1261 62.1662 52.7336 62.6076 52.1939C63.0481 51.6532 63.3047 50.9662 63.3047 50.2412L63.3038 50.1761V50.1725C63.3004 50.0093 63.2837 49.8383 63.2522 49.6662C63.176 49.2579 63.021 48.8874 62.8082 48.5603C62.5 48.2869 62.1576 47.9298 61.8345 47.5329C61.4903 47.1096 61.1733 46.6466 60.9605 46.1801C60.8204 45.8679 60.7205 45.5522 60.7188 45.2198C60.7188 45.0725 60.7389 44.92 60.7941 44.7736C60.8475 44.6245 60.935 44.4834 61.0524 44.367C61.238 44.1809 61.5392 44.1809 61.7258 44.367C61.9115 44.5557 61.9115 44.8608 61.7258 45.047L61.6898 45.1043L61.6715 45.2199C61.6697 45.3407 61.7197 45.5454 61.8273 45.7807C61.9342 46.0154 62.0927 46.279 62.2793 46.5391C62.6488 47.0604 63.1279 47.5719 63.4886 47.884L63.5377 47.9264L63.5736 47.9802C63.8688 48.4229 64.0851 48.9327 64.1892 49.4891V49.49L64.2234 49.7281L64.3662 49.7343C64.9705 49.7334 65.579 49.5535 66.1141 49.1751C66.5398 48.8735 66.8638 48.4864 67.0828 48.0515C67.3025 47.6159 67.4172 47.1344 67.4172 46.6494C67.4172 46.1952 67.3156 45.7392 67.1125 45.3151C66.9241 45.3759 66.7332 45.4244 66.5397 45.458C66.2805 45.5046 66.0344 45.3273 65.988 45.0664C65.9441 44.8045 66.1194 44.5576 66.3786 44.5117C67.2227 44.3653 67.9961 43.8697 68.4742 43.0742C68.7772 42.5742 68.92 42.0238 68.92 41.4798C68.92 40.6781 68.6125 39.8941 68.0399 39.3129L68.0385 39.3124ZM46.1915 35.649C46.6469 35.1066 47.2512 34.7211 47.9009 34.4689C48.5534 34.2167 49.2522 34.0958 49.9231 34.0958C50.5755 34.0967 51.2025 34.2079 51.7349 34.4566C51.9731 34.5659 52.0773 34.8525 51.967 35.0933C51.8575 35.3333 51.5746 35.439 51.3339 35.328C50.9661 35.1543 50.4624 35.0546 49.9231 35.0546C49.3678 35.0546 48.7759 35.1576 48.2442 35.3659C47.7127 35.5713 47.2459 35.8782 46.9175 36.2681C46.7493 36.4709 46.4472 36.4974 46.2458 36.3246C46.0453 36.1534 46.0199 35.8509 46.1915 35.649ZM57.0436 47.0024C56.4893 47.0024 55.9865 46.939 55.5277 46.8323C55.54 46.9645 55.5487 47.1118 55.5487 47.2679C55.5487 47.581 55.5145 47.9389 55.4173 48.3147C55.3192 48.6894 55.1538 49.0837 54.8928 49.462C54.7431 49.6807 54.4461 49.7345 54.2299 49.5836C54.0127 49.4328 53.9602 49.1347 54.1081 48.9151C54.3007 48.6355 54.4207 48.3498 54.4943 48.0685C54.5679 47.7873 54.5951 47.5138 54.5951 47.2678C54.596 46.9283 54.5442 46.6487 54.5075 46.4891C54.2745 46.3832 54.0599 46.2642 53.8595 46.131C53.0608 45.6106 52.5267 44.9237 52.1912 44.2701C51.9662 43.8318 51.8294 43.4086 51.7559 43.0408C51.7139 42.8308 51.6929 42.6405 51.6929 42.4675C51.6929 42.2012 51.9066 41.9859 52.1702 41.9859C52.4337 41.9859 52.6475 42.2012 52.6475 42.4675C52.6466 42.6067 52.6764 42.8405 52.7517 43.106C52.827 43.3723 52.947 43.6749 53.1204 43.9791C53.468 44.5911 54.0206 45.204 54.8736 45.6018C55.4437 45.8681 56.153 46.041 57.0436 46.041C57.3072 46.041 57.5209 46.2562 57.5209 46.5216C57.5209 46.7873 57.3073 47.0024 57.0436 47.0024ZM60.4012 43.496C60.3032 43.7412 60.0255 43.8612 59.7803 43.7632C59.536 43.6644 59.4187 43.3866 59.515 43.1406V43.1397L59.5177 43.1326L59.5317 43.0903L59.5808 42.9175C59.6168 42.7658 59.6535 42.5515 59.6535 42.316L59.6526 42.2825C58.9976 42.5065 58.3898 42.607 57.8302 42.607C56.9843 42.6088 56.2522 42.3751 55.6566 42.0206C55.0603 41.6662 54.5962 41.1969 54.2493 40.7198C53.8553 40.1792 53.3386 39.6942 52.7465 39.3512C52.1529 39.0071 51.489 38.8026 50.7841 38.8008C50.1667 38.8026 49.5099 38.9577 48.8242 39.337C48.1735 39.6968 47.7549 40.1756 47.4843 40.7012C47.2155 41.2278 47.1017 41.8027 47.1025 42.3266C47.1007 42.8116 47.2023 43.2507 47.3345 43.5277C47.4475 43.7676 47.345 44.0533 47.1077 44.1671C46.8704 44.2809 46.5858 44.1776 46.4728 43.9387C46.2652 43.4959 46.1497 42.9385 46.1479 42.3266C46.1488 41.7181 46.2688 41.053 46.564 40.4173C45.9721 40.5523 45.4221 40.6122 44.9211 40.6122C44.6506 40.6122 44.3956 40.5946 44.1531 40.5628L44.0646 40.7427L44.0637 40.7444L44.0567 40.7516L44.0313 40.7843L43.9296 40.9235C43.8429 41.0489 43.7229 41.2314 43.5925 41.4641C43.3324 41.9254 43.0346 42.5762 42.8901 43.3072C42.8385 43.5674 42.588 43.7376 42.3296 43.6846C42.0713 43.6327 41.903 43.3804 41.9565 43.1185C42.1281 42.2516 42.4672 41.5143 42.7623 40.9896C42.9163 40.718 43.0574 40.5029 43.1607 40.3564C42.7719 40.2392 42.4356 40.0954 42.1607 39.9489C41.5328 39.6129 41.206 39.276 41.1781 39.2487C40.9959 39.0573 41.0011 38.7539 41.1903 38.5696C41.3803 38.3862 41.6807 38.3915 41.8637 38.5802L41.8691 38.5855L41.897 38.6128L42.0336 38.7282C42.1579 38.827 42.3498 38.9629 42.6063 39.1004C43.1212 39.3738 43.8902 39.6508 44.9209 39.6526C45.6451 39.6526 46.499 39.5133 47.4911 39.1287C47.7425 38.8933 48.0323 38.6782 48.3651 38.4947C49.1813 38.0441 50.0036 37.8412 50.7839 37.8412C51.6754 37.8412 52.5047 38.1024 53.2228 38.5185C53.9409 38.9366 54.5496 39.5089 55.018 40.1527C55.3027 40.5415 55.6766 40.9181 56.1399 41.1923C56.6058 41.4675 57.1566 41.6466 57.83 41.6474C58.2915 41.6474 58.8117 41.561 59.4002 41.3529C59.2567 41.1209 59.043 40.8969 58.6909 40.694C58.4615 40.5626 58.38 40.2699 58.5096 40.0397C58.6401 39.8077 58.93 39.7283 59.1594 39.8571C59.7233 40.1773 60.1008 40.6014 60.3197 41.045C60.5412 41.4869 60.6069 41.9349 60.6069 42.3159C60.6044 42.981 60.4143 43.4617 60.4012 43.496ZM60.2226 37.613C59.1087 37.613 58.134 37.3104 57.3458 36.8528C57.2347 37.008 57.0857 37.2029 56.8939 37.4145C56.4622 37.8916 55.8281 38.4517 54.9796 38.7585C54.73 38.8467 54.4585 38.718 54.3701 38.4676C54.2816 38.217 54.4121 37.9428 54.6582 37.8546C55.2844 37.6297 55.808 37.1879 56.1706 36.7884C56.3388 36.6058 56.4693 36.433 56.5639 36.3007C56.0936 35.9004 55.7223 35.4444 55.4675 34.9753C55.2258 34.5255 55.0856 34.0616 55.0839 33.6109C55.0839 33.3464 55.2977 33.1312 55.5612 33.1312C55.824 33.1312 56.0376 33.3464 56.0376 33.6109C56.0358 33.8535 56.1199 34.1772 56.3055 34.5167C56.4885 34.857 56.767 35.2115 57.1313 35.5291C57.86 36.165 58.9117 36.6517 60.2227 36.6517C60.4863 36.6517 60.6991 36.8678 60.6991 37.1332C60.699 37.3977 60.4862 37.613 60.2226 37.613ZM63.9812 44.3744C63.8139 44.5773 63.5126 44.6072 63.3095 44.437C63.1064 44.2685 63.0784 43.9652 63.2447 43.7615C63.7649 43.1256 63.9567 42.4853 63.9584 41.8725C63.9602 41.3143 63.7903 40.7754 63.524 40.3213C63.2613 39.8679 62.898 39.5046 62.5485 39.3027C62.3138 39.1669 62.0931 39.106 61.918 39.106C61.6543 39.106 61.4416 38.8918 61.4416 38.6263C61.4416 38.3609 61.6544 38.1457 61.918 38.1457C62.2078 38.1457 62.4915 38.2171 62.7613 38.337C63.0301 38.4553 63.2842 38.6237 63.5206 38.8293C63.9926 39.2401 64.3937 39.7993 64.6459 40.4546C64.8123 40.8919 64.9138 41.3718 64.9138 41.8726C64.9147 42.6962 64.6354 43.578 63.9812 44.3744Z" fill="#2156B1"/>
<path d="M70.4791 29.5416C66.8862 25.3352 61.4827 22.4707 54.5589 22.0523C53.9957 22.0177 53.4352 22 52.88 22C47.0568 22 41.7001 23.8932 37.7732 27.3687C33.8435 30.8354 31.3966 35.911 31.4055 41.9902C31.4055 42.1278 31.4064 42.2654 31.409 42.404L31.4029 43.1374L26.4045 51.9753C26.1358 52.4522 26 52.9841 26 53.5161C26 53.9599 26.0941 54.4058 26.2847 54.8213C26.6882 55.7031 27.4819 56.3371 28.422 56.5555L28.4202 56.5635L30.7189 57.1975L31.6271 65.9681L31.6342 65.9672C31.6982 67.245 32.2675 68.4446 33.2342 69.2864C34.0937 70.0359 35.1907 70.4426 36.3188 70.4426C36.433 70.4426 36.5457 70.4319 36.6593 70.424L39.264 70.6308L39.3945 70.6167L39.4361 70.6149C39.5362 70.6149 39.6295 70.6504 39.7013 70.7152L39.7056 70.7198C39.7882 70.7943 39.8369 70.9035 39.8369 71.0154V80H64.1574V78.6361C64.1574 78.6361 64.1574 74.9413 64.1574 73.4673C64.1547 72.874 64.2727 71.7011 64.5051 70.5698C64.6204 70.0025 64.763 69.4367 64.9246 68.9476C65.0842 68.4592 65.2688 68.0436 65.423 67.8012C67.0406 65.1905 69.3279 63.0488 71.4225 60.0199C73.5147 56.9937 75.2981 53.0679 75.7868 47.1114C75.8489 46.3646 75.88 45.6178 75.88 44.8747C75.88 39.2277 74.0779 33.7443 70.4791 29.5416ZM73.0713 46.8838C72.5986 52.4204 71.0519 55.7333 69.1787 58.4728C67.3084 61.2096 64.9955 63.3611 63.1127 66.3546C62.7846 66.8838 62.5441 67.47 62.3376 68.0932C62.0307 69.0266 61.8117 70.0442 61.6618 70.9916C61.5128 71.9417 61.4339 72.8031 61.433 73.4673C61.433 74.4139 61.433 75.8453 61.433 77.2722H42.5613V71.0155C42.5613 70.1266 42.1836 69.2804 41.5218 68.6865C40.9445 68.167 40.1996 67.8864 39.436 67.8864C39.3801 67.8864 39.326 67.8925 39.271 67.8961L36.669 67.6884L36.5413 67.7025L36.3188 67.715C35.8452 67.715 35.384 67.5436 35.023 67.2292C34.6062 66.8661 34.3595 66.3439 34.3436 65.789L34.3428 65.7375L33.2378 55.0641L29.0961 53.9204L29.0464 53.9106C28.9205 53.8857 28.815 53.8022 28.7608 53.685L28.7244 53.5163L28.7759 53.3192L34.1218 43.8667L34.1334 42.3899V42.3703C34.1308 42.2426 34.1299 42.1164 34.1299 41.9904C34.1388 36.6377 36.2166 32.4002 39.5779 29.4122C42.9426 26.4312 47.6413 24.728 52.88 24.728C53.3793 24.728 53.8831 24.744 54.3904 24.7752L54.4746 23.4139L54.3912 24.7752C60.664 25.1703 65.2811 27.6762 68.4108 31.3177C71.5352 34.962 73.1556 39.8023 73.1556 44.8745C73.1556 45.5412 73.1281 46.2116 73.0713 46.8838Z" fill="#2156B1"/>
</g>
</g>
</svg>
