<svg width="49" height="49" viewBox="0 0 49 49" fill="none" xmlns="http://www.w3.org/2000/svg">
<path fill-rule="evenodd" clip-rule="evenodd" d="M23.5687 10.9841C23.7045 10.9249 23.8511 10.8943 23.9993 10.8943C24.1475 10.8943 24.294 10.9249 24.4298 10.9841C29.737 13.3039 34.7994 16.1476 39.5417 19.4729C39.7088 19.5901 39.8391 19.7524 39.9175 19.9409C39.9959 20.1294 40.019 20.3362 39.9843 20.5374C39.9495 20.7385 39.8583 20.9256 39.7212 21.0769C39.5842 21.2282 39.4069 21.3373 39.2101 21.3917C34.2868 22.7514 29.5229 24.6335 24.9996 27.0058L24.9953 27.0087L24.9015 27.058L24.9011 27.0582C24.7693 27.1275 24.6383 27.1963 24.5073 27.267C24.3512 27.3505 24.177 27.3941 24 27.3941C23.823 27.3941 23.6488 27.3505 23.4927 27.267C21.5526 26.2317 19.5668 25.2845 17.5412 24.4284V24.1069C17.5412 23.9189 17.6374 23.751 17.7881 23.6606C19.9542 22.3479 22.1827 21.141 24.4657 20.0441C24.723 19.9204 24.9206 19.6995 25.0151 19.4301C25.1096 19.1607 25.0931 18.8648 24.9694 18.6075C24.8457 18.3502 24.6249 18.1526 24.3555 18.0581C24.0861 17.9637 23.7902 17.9801 23.5329 18.1038C21.1876 19.2308 18.8983 20.4707 16.673 21.8193C16.3564 22.0114 16.0833 22.2673 15.871 22.5707C15.6588 22.8741 15.5121 23.2184 15.4402 23.5816C13.2606 22.743 11.0411 22.0116 8.78986 21.3902C8.5931 21.3359 8.41584 21.2267 8.27877 21.0755C8.1417 20.9242 8.05047 20.7371 8.01571 20.536C7.98096 20.3348 8.00412 20.1279 8.08249 19.9394C8.16087 19.751 8.29122 19.5887 8.45834 19.4715C13.2003 16.1467 18.2621 13.3035 23.5687 10.9841ZM25.5204 29.1641C29.0455 27.2808 32.7263 25.705 36.5221 24.4541C36.7144 26.4833 36.8378 28.5341 36.888 30.6021C36.8936 30.8189 36.8336 31.0323 36.7158 31.2144C36.598 31.3965 36.4279 31.5387 36.2279 31.6225C32.1597 33.3216 28.2645 35.4083 24.5962 37.8538C24.4194 37.9716 24.2117 38.0345 23.9992 38.0345C23.7867 38.0345 23.579 37.9716 23.4022 37.8538C20.9464 36.2164 18.3889 34.7399 15.7459 33.4329C16.0147 33.5656 16.2826 33.6999 16.5495 33.8354C16.9095 33.1032 17.1752 32.3283 17.3402 31.5292C17.7032 31.3678 18.0144 31.1092 18.2394 30.782C18.4645 30.4547 18.5946 30.0715 18.6154 29.6749C18.6362 29.2783 18.5468 28.8836 18.3573 28.5346C18.1677 28.1856 17.8852 27.8959 17.5412 27.6974V26.7718C19.2175 27.5041 20.8644 28.3022 22.478 29.1641C22.9461 29.4141 23.4685 29.5449 23.9992 29.5449C24.5299 29.5449 25.0524 29.4141 25.5204 29.1641ZM15.3435 33.2357C15.4778 33.301 15.6119 33.3667 15.7459 33.4329C15.4733 33.2981 15.1998 33.1651 14.9255 33.0339C14.8231 32.9849 14.7207 32.9362 14.6181 32.8877C14.8691 32.3756 15.0584 31.8404 15.1876 31.2953C14.8993 31.0832 14.6684 30.8026 14.5159 30.4789C14.3633 30.1552 14.2939 29.7986 14.3138 29.4413C14.3338 29.0839 14.4425 28.7372 14.6301 28.4325C14.8177 28.1278 15.0784 27.8747 15.3885 27.696V25.8734C14.1026 25.3625 12.7981 24.8889 11.4763 24.4526C11.284 26.4848 11.1606 28.5341 11.1104 30.6036C11.1052 30.8203 11.1656 31.0335 11.2837 31.2153C11.4017 31.3971 11.5719 31.539 11.772 31.6225C12.7299 32.0226 13.6783 32.4443 14.6163 32.8871C14.2619 33.6117 13.784 34.2877 13.1813 34.8889L13.1827 34.8904C12.9926 35.0944 12.8891 35.3643 12.894 35.6431C12.8989 35.922 13.0119 36.188 13.2091 36.3852C13.4063 36.5824 13.6723 36.6954 13.9512 36.7003C14.23 36.7052 14.4999 36.6017 14.7039 36.4116C15.4564 35.6606 16.0799 34.7908 16.5495 33.837C16.1497 33.6331 15.7477 33.4325 15.3435 33.2357Z" fill="#0070F3"/>
</svg>
