<svg width="49" height="49" viewBox="0 0 49 49" fill="none" xmlns="http://www.w3.org/2000/svg">
<path fill-rule="evenodd" clip-rule="evenodd" d="M24 8.89429C15.1631 8.89429 8 16.0574 8 24.8943C8 33.7312 15.1631 40.8943 24 40.8943C32.8369 40.8943 40 33.7312 40 24.8943C40 16.0574 32.8369 8.89429 24 8.89429ZM24.8697 17.8707C24.639 17.6402 24.3262 17.5108 24 17.5108C23.6738 17.5108 23.361 17.6402 23.1303 17.8707L18.2072 22.7938C18.0863 22.9065 17.9893 23.0423 17.922 23.1933C17.8547 23.3443 17.8186 23.5073 17.8156 23.6725C17.8127 23.8378 17.8431 24.0019 17.905 24.1552C17.9669 24.3084 18.0591 24.4476 18.1759 24.5645C18.2928 24.6814 18.432 24.7735 18.5853 24.8354C18.7385 24.8973 18.9027 24.9277 19.0679 24.9248C19.2332 24.9219 19.3962 24.8857 19.5471 24.8184C19.6981 24.7512 19.834 24.6542 19.9467 24.5333L22.7692 21.7107V31.0481C22.7692 31.3746 22.8989 31.6876 23.1297 31.9184C23.3605 32.1492 23.6736 32.2789 24 32.2789C24.3264 32.2789 24.6395 32.1492 24.8703 31.9184C25.1011 31.6876 25.2308 31.3746 25.2308 31.0481V21.7107L28.0533 24.5333C28.166 24.6542 28.3019 24.7512 28.4529 24.8184C28.6038 24.8857 28.7668 24.9219 28.9321 24.9248C29.0973 24.9277 29.2615 24.8973 29.4147 24.8354C29.568 24.7735 29.7072 24.6814 29.8241 24.5645C29.9409 24.4476 30.0331 24.3084 30.095 24.1552C30.1569 24.0019 30.1873 23.8378 30.1844 23.6725C30.1814 23.5073 30.1453 23.3443 30.078 23.1933C30.0107 23.0423 29.9137 22.9065 29.7928 22.7938L24.8697 17.8707Z" fill="#0070F3"/>
</svg>
