<svg width="49" height="49" viewBox="0 0 49 49" fill="none" xmlns="http://www.w3.org/2000/svg">
<path fill-rule="evenodd" clip-rule="evenodd" d="M38.8571 8.89429C31.1543 8.89429 24.2971 12.5255 19.9086 18.1651C18.4391 17.9304 16.9363 18.0172 15.5037 18.4197C14.0711 18.8222 12.7428 19.5307 11.6107 20.4964C10.4785 21.4621 9.56939 22.662 8.94602 24.0132C8.32264 25.3644 7.99988 26.8348 8 28.3229C8 28.626 8.12041 28.9167 8.33474 29.131C8.54906 29.3453 8.83975 29.4657 9.14286 29.4657H15.4392C16.6084 30.9474 17.9473 32.2869 19.4286 33.4566V39.7514C19.4286 40.0545 19.549 40.3452 19.7633 40.5596C19.9776 40.7739 20.2683 40.8943 20.5714 40.8943C22.0593 40.8944 23.5296 40.5716 24.8807 39.9484C26.2317 39.3251 27.4315 38.4161 28.3972 37.2841C29.3629 36.1521 30.0714 34.8241 30.474 33.3917C30.8767 31.9593 30.9637 30.4566 30.7291 28.9872C36.3688 24.5971 40 17.7415 40 10.0371C40 9.73404 39.8796 9.44335 39.6653 9.22902C39.4509 9.01469 39.1602 8.89429 38.8571 8.89429ZM26.1471 17.8985C26.79 17.2555 27.6621 16.8943 28.5714 16.8943C29.4807 16.8943 30.3528 17.2555 30.9958 17.8985C31.6388 18.5415 32 19.4135 32 20.3229C32 21.2322 31.6388 22.1042 30.9958 22.7472C30.3528 23.3902 29.4807 23.7514 28.5714 23.7514C27.6621 23.7514 26.79 23.3902 26.1471 22.7472C25.5041 22.1042 25.1429 21.2322 25.1429 20.3229C25.1429 19.4135 25.5041 18.5415 26.1471 17.8985ZM14.0283 32.5508C13.9515 32.6798 13.85 32.7923 13.7296 32.8821C12.3307 33.9259 11.4286 35.5914 11.4286 37.4657C12.3192 37.4666 13.1977 37.2589 13.9936 36.8593C14.7895 36.4598 15.4809 35.8794 16.0123 35.1648C16.101 35.0418 16.2133 34.9377 16.3426 34.8586C16.472 34.7794 16.6158 34.7268 16.7656 34.7038C16.9155 34.6808 17.0685 34.6878 17.2156 34.7245C17.3627 34.7612 17.5011 34.8268 17.6226 34.9175C17.7442 35.0082 17.8464 35.1221 17.9235 35.2527C18.0005 35.3833 18.0508 35.528 18.0714 35.6782C18.092 35.8284 18.0825 35.9813 18.0434 36.1278C18.0043 36.2743 17.9365 36.4116 17.8439 36.5316C16.9745 37.7008 15.802 38.61 14.4532 39.1609C13.1044 39.7118 11.6306 39.8833 10.1913 39.657C9.95173 39.6193 9.73032 39.5065 9.55911 39.3347C9.3879 39.163 9.27576 38.9412 9.23893 38.7015C9.0124 37.2624 9.1837 35.7887 9.73429 34.4399C10.2849 33.0911 11.1938 31.9185 12.3627 31.049C12.4831 30.9592 12.62 30.894 12.7655 30.8572C12.9111 30.8203 13.0624 30.8125 13.211 30.8342C13.3596 30.8558 13.5024 30.9065 13.6314 30.9834C13.7604 31.0602 13.873 31.1617 13.9627 31.2821C14.0525 31.4025 14.1176 31.5393 14.1545 31.6849C14.1914 31.8304 14.1992 31.9818 14.1775 32.1304C14.1559 32.279 14.1052 32.4218 14.0283 32.5508Z" fill="#0070F3"/>
</svg>
