<svg width="49" height="49" viewBox="0 0 49 49" fill="none" xmlns="http://www.w3.org/2000/svg">
<path d="M23.4225 14.9636C23.4225 14.4021 23.1283 13.8943 22.7882 13.4467C22.434 12.9933 22.2399 12.4354 22.2361 11.8601C22.2361 10.2214 23.829 8.89429 25.7952 8.89429C27.7613 8.89429 29.3542 10.223 29.3542 11.8601C29.3542 12.4438 29.1517 12.988 28.8021 13.4467C28.4621 13.8943 28.1678 14.4021 28.1678 14.9636C28.1678 15.4888 28.6076 15.9095 29.1327 15.8779C32.154 15.6976 35.1277 15.3369 38.0414 14.8086C38.2001 14.7798 38.363 14.7837 38.5201 14.82C38.6773 14.8564 38.8254 14.9243 38.9554 15.0198C39.0854 15.1153 39.1945 15.2363 39.2761 15.3754C39.3578 15.5145 39.4102 15.6688 39.4302 15.8289C39.7882 18.6903 39.9867 21.5693 40.025 24.4528C40.0264 24.5906 40.0005 24.7273 39.9486 24.855C39.8967 24.9827 39.82 25.0988 39.7228 25.1965C39.6257 25.2942 39.5101 25.3717 39.3827 25.4243C39.2553 25.477 39.1188 25.5037 38.981 25.5031C38.421 25.5031 37.9133 25.2089 37.4656 24.8688C37.0122 24.5147 36.4544 24.3205 35.8791 24.3168C34.2419 24.3168 32.9132 25.9096 32.9132 27.8758C32.9132 29.842 34.2419 31.4348 35.8791 31.4348C36.4628 31.4348 37.0069 31.2323 37.4656 30.8828C37.9133 30.5427 38.421 30.2485 38.9825 30.2485C39.4729 30.2485 39.8636 30.6629 39.8272 31.1517C39.6416 33.7204 39.3275 36.2782 38.8861 38.8155C38.8441 39.056 38.7289 39.2778 38.5562 39.4505C38.3835 39.6232 38.1618 39.7384 37.9212 39.7803C35.0423 40.2818 32.1112 40.6234 29.1343 40.7959C29.0096 40.8025 28.8849 40.7837 28.7678 40.7405C28.6506 40.6973 28.5436 40.6306 28.4531 40.5446C28.3626 40.4585 28.2906 40.3549 28.2416 40.2401C28.1925 40.1253 28.1674 40.0017 28.1678 39.8768C28.1678 39.3153 28.4621 38.8075 28.8021 38.3599C29.1517 37.9012 29.3542 37.357 29.3542 36.7734C29.3542 35.1362 27.7613 33.8075 25.7952 33.8075C23.829 33.8075 22.2361 35.1362 22.2361 36.7734C22.2361 37.357 22.4386 37.9012 22.7882 38.3599C23.1283 38.8075 23.4225 39.3153 23.4225 39.8768C23.4229 40.0126 23.3962 40.147 23.3437 40.2721C23.2913 40.3973 23.2142 40.5107 23.1172 40.6055C23.0201 40.7004 22.905 40.7748 22.7787 40.8243C22.6523 40.8739 22.5173 40.8975 22.3816 40.8939C19.8916 40.8236 17.4064 40.6336 14.9346 40.3245C14.7745 40.3045 14.6202 40.2521 14.4811 40.1704C14.342 40.0888 14.221 39.9796 14.1256 39.8497C14.0301 39.7197 13.9621 39.5716 13.9258 39.4144C13.8894 39.2573 13.8855 39.0944 13.9143 38.9357C14.3778 36.3827 14.7115 33.7838 14.9093 31.1469C14.9175 31.0318 14.9019 30.9161 14.8634 30.8072C14.8249 30.6984 14.7643 30.5986 14.6855 30.5143C14.6066 30.4299 14.5112 30.3628 14.4052 30.317C14.2991 30.2713 14.1848 30.248 14.0693 30.2485C13.5078 30.2485 13 30.5427 12.5524 30.8828C12.0937 31.2323 11.5495 31.4348 10.9659 31.4348C9.32712 31.4348 8 29.842 8 27.8758C8 25.9096 9.3287 24.3168 10.9659 24.3168C11.5495 24.3168 12.0937 24.5192 12.5524 24.8688C13 25.2089 13.5078 25.5031 14.0693 25.5031C14.2069 25.5037 14.3433 25.477 14.4705 25.4244C14.5976 25.3719 14.7131 25.2946 14.8101 25.197C14.9071 25.0994 14.9837 24.9835 15.0355 24.856C15.0873 24.7285 15.1132 24.592 15.1117 24.4544C15.0771 21.9063 14.9135 19.3616 14.6214 16.8301C14.6007 16.6526 14.6204 16.4727 14.679 16.3038C14.7376 16.1349 14.8336 15.9815 14.9599 15.8549C15.0861 15.7284 15.2393 15.632 15.4081 15.573C15.5768 15.5139 15.7567 15.4938 15.9343 15.5141C18.0586 15.7593 20.2098 15.9159 22.3832 15.9791C22.5187 15.9827 22.6535 15.9591 22.7796 15.9096C22.9058 15.8602 23.0207 15.7859 23.1177 15.6912C23.2146 15.5965 23.2915 15.4833 23.3438 15.3583C23.3962 15.2333 23.4229 15.0991 23.4225 14.9636Z" fill="#0070F3"/>
</svg>
