<svg width="49" height="49" viewBox="0 0 49 49" fill="none" xmlns="http://www.w3.org/2000/svg">
<path fill-rule="evenodd" clip-rule="evenodd" d="M16.5947 11.3157C18.6438 9.7448 21.1538 8.89371 23.7358 8.89429C26.3177 8.89371 28.8278 9.7448 30.8769 11.3157C32.926 12.8865 34.3997 15.0894 35.0697 17.5829C35.7396 20.0764 35.5684 22.7213 34.5825 25.1076C33.5966 27.4939 31.8511 29.4884 29.6166 30.7819C28.6409 31.348 28.0322 32.2155 28.0038 33.0902C27.9963 33.3244 27.9119 33.5497 27.7636 33.7312C27.6153 33.9127 27.4113 34.0403 27.1832 34.0942C26.6826 34.2123 26.1734 34.3047 25.6557 34.3716C25.1964 34.4299 24.8024 34.0615 24.8024 33.5965V26.969C25.2519 26.9191 25.6972 26.8374 26.135 26.7244C26.2741 26.6928 26.4054 26.6336 26.5212 26.5503C26.637 26.467 26.7349 26.3614 26.8092 26.2396C26.8834 26.1178 26.9325 25.9824 26.9535 25.8413C26.9745 25.7002 26.967 25.5564 26.9314 25.4183C26.8958 25.2801 26.8329 25.1506 26.7464 25.0372C26.6598 24.9238 26.5514 24.8289 26.4276 24.7582C26.3038 24.6874 26.167 24.6422 26.0254 24.6252C25.8838 24.6083 25.7402 24.6199 25.6031 24.6594C24.3782 24.975 23.0933 24.975 21.8684 24.6594C21.7327 24.6244 21.5915 24.6166 21.4528 24.6362C21.3141 24.6559 21.1806 24.7027 21.0599 24.7739C20.9393 24.8452 20.8339 24.9395 20.7497 25.0515C20.6655 25.1635 20.6042 25.291 20.5693 25.4266C20.5343 25.5623 20.5265 25.7036 20.5461 25.8423C20.5658 25.981 20.6126 26.1145 20.6838 26.2351C20.7551 26.3558 20.8494 26.4612 20.9614 26.5454C21.0734 26.6296 21.2008 26.6909 21.3365 26.7258C21.7744 26.8383 22.2197 26.9196 22.6691 26.969V33.5979C22.6691 34.0615 22.2752 34.4299 21.8158 34.3716C21.2981 34.3047 20.789 34.2123 20.2884 34.0942C20.0603 34.0403 19.8563 33.9127 19.708 33.7312C19.5596 33.5497 19.4752 33.3244 19.4678 33.0902C19.4407 32.2155 18.8306 31.348 17.855 30.7819C15.6204 29.4884 13.8749 27.4939 12.889 25.1076C11.9032 22.7213 11.7319 20.0764 12.4019 17.5829C13.0718 15.0894 14.5456 12.8865 16.5947 11.3157ZM19.6436 35.7434C19.5668 35.8606 19.5138 35.9917 19.4877 36.1294C19.4352 36.4072 19.4952 36.6944 19.6544 36.928C19.8136 37.1616 20.059 37.3225 20.3367 37.3752C22.5827 37.8015 24.8888 37.8015 27.1348 37.3752C27.2757 37.3526 27.4106 37.302 27.5316 37.2264C27.6525 37.1507 27.7571 37.0516 27.839 36.9348C27.921 36.818 27.9787 36.686 28.0087 36.5466C28.0387 36.4071 28.0405 36.263 28.0138 36.1229C27.9872 35.9827 27.9327 35.8493 27.8536 35.7306C27.7745 35.6119 27.6724 35.5102 27.5533 35.4317C27.4342 35.3531 27.3006 35.2992 27.1603 35.2733C27.02 35.2473 26.876 35.2497 26.7366 35.2803C24.7538 35.6566 22.7178 35.6566 20.7349 35.2803C20.5973 35.2542 20.4558 35.2554 20.3187 35.2839C20.1815 35.3124 20.0512 35.3676 19.9354 35.4465C19.8196 35.5253 19.7204 35.6262 19.6436 35.7434ZM20.6647 39.2077C20.5979 39.3308 20.5561 39.4659 20.5415 39.6052C20.5269 39.7446 20.54 39.8854 20.5798 40.0197C20.6197 40.154 20.6856 40.2792 20.7738 40.388C20.862 40.4968 20.9708 40.5872 21.094 40.6539C21.2171 40.7207 21.3522 40.7626 21.4916 40.7771C22.9836 40.9333 24.4879 40.9333 25.98 40.7771C26.2614 40.7477 26.5196 40.6077 26.6977 40.3879C26.8759 40.1682 26.9595 39.8866 26.93 39.6052C26.9006 39.3239 26.7606 39.0657 26.5409 38.8875C26.3211 38.7094 26.0395 38.6258 25.7582 38.6552C24.4136 38.7957 23.058 38.7957 21.7134 38.6552C21.5741 38.6406 21.4333 38.6536 21.299 38.6935C21.1646 38.7334 21.0395 38.7993 20.9307 38.8875C20.8219 38.9757 20.7315 39.0845 20.6647 39.2077Z" fill="#0070F3"/>
</svg>
