<svg width="24" height="25" viewBox="0 0 24 25" fill="none" xmlns="http://www.w3.org/2000/svg">
<path d="M20.6703 1.75549H4.35701C2.65138 1.75549 1.26367 3.14292 1.26367 4.84883V14.8322C1.26367 16.5343 2.64534 17.9195 4.34602 17.9256V22.4559L10.8567 17.9256H20.6703C22.376 17.9256 23.7637 16.5379 23.7637 14.8322V4.84883C23.7637 3.14292 22.376 1.75549 20.6703 1.75549ZM22.4453 14.8322C22.4453 15.8108 21.6491 16.6072 20.6703 16.6072H10.443L5.66438 19.9325V16.6072H4.35701C3.37827 16.6072 2.58203 15.8108 2.58203 14.8322V4.84883C2.58203 3.86994 3.37827 3.07385 4.35701 3.07385H20.6703C21.6491 3.07385 22.4453 3.86994 22.4453 4.84883V14.8322Z" fill="black"/>
<path d="M7.28516 6.41394H17.7411V7.7323H7.28516V6.41394Z" fill="black"/>
<path d="M7.28516 9.22644H17.7411V10.5448H7.28516V9.22644Z" fill="black"/>
<path d="M7.28516 12.0389H17.7411V13.3573H7.28516V12.0389Z" fill="black"/>
</svg>
