<svg width="25" height="24" viewBox="0 0 25 24" fill="none" xmlns="http://www.w3.org/2000/svg">
<g clip-path="url(#clip0_659_17341)">
<g clip-path="url(#clip1_659_17341)">
<g clip-path="url(#clip2_659_17341)">
<mask id="mask0_659_17341" style="mask-type:luminance" maskUnits="userSpaceOnUse" x="0" y="0" width="25" height="24">
<path d="M24.5 0H0.5V24H24.5V0Z" fill="white"/>
</mask>
<g mask="url(#mask0_659_17341)">
<path d="M10.9876 5.84829C8.73632 6.37319 6.92409 8.15852 6.37068 10.3966C5.81554 12.6419 6.45088 14.9304 8.07032 16.5185C8.64313 17.0803 8.98518 17.9807 8.98518 18.9272V19.0783C8.98518 19.7015 9.2571 20.2623 9.6883 20.6488V21.8908C9.6883 23.0539 10.6346 24.0001 11.7977 24.0001H13.2039C14.367 24.0001 15.3133 23.0539 15.3133 21.8908V20.6488C15.7445 20.2623 16.0164 19.7016 16.0164 19.0783V18.9244C16.0164 17.9924 16.3768 17.0748 16.9803 16.47C18.1724 15.2753 18.8289 13.6879 18.8289 12.0001C18.8289 7.96521 15.0898 4.89213 10.9876 5.84829ZM13.9071 21.8908C13.9071 22.2785 13.5916 22.5939 13.2039 22.5939H11.7977C11.41 22.5939 11.0946 22.2785 11.0946 21.8908V21.1876H13.9071V21.8908ZM15.9848 15.4767C15.1112 16.3522 14.6102 17.6088 14.6102 18.9244V19.0783C14.6102 19.466 14.2948 19.7814 13.9071 19.7814H11.0946C10.7069 19.7814 10.3914 19.466 10.3914 19.0783V18.9272C10.3914 17.5913 9.90426 16.3474 9.05488 15.5145C7.79441 14.2784 7.30134 12.4914 7.73577 10.7341C8.16351 9.00415 9.56526 7.62387 11.3069 7.21783C14.5259 6.46722 17.4227 8.87022 17.4227 12.0001C17.4227 13.3128 16.912 14.5475 15.9848 15.4767Z" fill="black"/>
<path d="M7.03087 5.53646L5.0421 3.54774C4.76755 3.27315 4.32234 3.27315 4.04774 3.54774C3.77315 3.82234 3.77315 4.26751 4.04774 4.5421L6.03651 6.53082C6.31105 6.80542 6.75632 6.80542 7.03087 6.53082C7.30546 6.25623 7.30546 5.81106 7.03087 5.53646Z" fill="black"/>
<path d="M4.0625 11.2969H1.20312C0.814812 11.2969 0.5 11.6117 0.5 12C0.5 12.3883 0.814812 12.7031 1.20312 12.7031H4.0625C4.45081 12.7031 4.76562 12.3883 4.76562 12C4.76562 11.6117 4.45081 11.2969 4.0625 11.2969Z" fill="black"/>
<path d="M23.7969 11.2969H20.9375C20.5492 11.2969 20.2344 11.6117 20.2344 12C20.2344 12.3883 20.5492 12.7031 20.9375 12.7031H23.7969C24.1852 12.7031 24.5 12.3883 24.5 12C24.5 11.6117 24.1852 11.2969 23.7969 11.2969Z" fill="black"/>
<path d="M20.9527 3.54774C20.6782 3.27315 20.233 3.27315 19.9584 3.54774L17.9696 5.53646C17.695 5.81101 17.695 6.25623 17.9696 6.53082C18.2442 6.80542 18.6894 6.80542 18.964 6.53082L20.9527 4.5421C21.2273 4.26756 21.2273 3.82234 20.9527 3.54774Z" fill="black"/>
<path d="M12.5 0C12.1117 0 11.7969 0.314812 11.7969 0.703125V3.5625C11.7969 3.95081 12.1117 4.26562 12.5 4.26562C12.8883 4.26562 13.2031 3.95081 13.2031 3.5625V0.703125C13.2031 0.314812 12.8883 0 12.5 0Z" fill="black"/>
<path d="M12.4991 8.48438C12.2101 8.48438 11.9157 8.51902 11.6245 8.58722C10.4121 8.8702 9.39714 9.86821 9.09896 11.0706C9.0055 11.4475 9.23523 11.8288 9.61211 11.9223C9.98907 12.0158 10.3704 11.786 10.4638 11.4091C10.6354 10.7174 11.2442 10.1201 11.9447 9.95652C12.1314 9.91279 12.318 9.89062 12.4991 9.89062C12.8874 9.89062 13.2023 9.57581 13.2023 9.1875C13.2023 8.79919 12.8874 8.48438 12.4991 8.48438Z" fill="black"/>
</g>
</g>
</g>
</g>
<defs>
<clipPath id="clip0_659_17341">
<rect width="24" height="24" fill="white" transform="translate(0.5)"/>
</clipPath>
<clipPath id="clip1_659_17341">
<rect width="24" height="24" fill="white" transform="translate(0.5)"/>
</clipPath>
<clipPath id="clip2_659_17341">
<rect width="24" height="24" fill="white" transform="translate(0.5)"/>
</clipPath>
</defs>
</svg>
