<svg version="1.2" xmlns="http://www.w3.org/2000/svg" viewBox="0 0 13 13" width="13" height="13">
	<title>star-svg</title>
	<style>
		.s0 { fill: #ffd600 } 
	</style>
	<path id="Layer" class="s0" d="m5.9 1.3c0.1-0.4 0.7-0.4 0.8 0l1.1 3.3c0.1 0.2 0.2 0.3 0.4 0.3h3.6c0.4 0 0.6 0.5 0.2 0.7l-2.9 2.1c-0.1 0.1-0.2 0.3-0.1 0.4l1.1 3.4c0.1 0.3-0.3 0.7-0.7 0.4l-2.9-2c-0.1-0.1-0.3-0.1-0.5 0l-2.9 2c-0.3 0.3-0.7-0.1-0.6-0.4l1.1-3.4c0.1-0.1 0-0.3-0.1-0.4l-3-2.1c-0.3-0.2-0.1-0.7 0.3-0.7h3.6c0.2 0 0.3-0.1 0.4-0.3z"/>
</svg>