<svg width="24" height="25" viewBox="0 0 24 25" fill="none" xmlns="http://www.w3.org/2000/svg">
<g clip-path="url(#clip0_1119_6738)">
<path d="M1.54719 12.0265L22.778 2.37112M22.778 2.37112L18.8087 0.875732M22.778 2.37112L21.301 6.34035M23.7195 24.8757H19.1041V11.9527C19.1041 11.7078 19.2014 11.4731 19.3745 11.2999C19.5476 11.1268 19.7824 11.0296 20.0272 11.0296H22.7964C23.0412 11.0296 23.276 11.1268 23.4491 11.2999C23.6222 11.4731 23.7195 11.7078 23.7195 11.9527V24.8757ZM14.4887 24.8757H9.87335V14.7219C9.87335 14.4771 9.9706 14.2423 10.1437 14.0692C10.3168 13.8961 10.5516 13.7988 10.7964 13.7988H13.5657C13.8105 13.7988 14.0453 13.8961 14.2184 14.0692C14.3915 14.2423 14.4887 14.4771 14.4887 14.7219V24.8757ZM5.25796 24.8757H0.642578V17.4911C0.642578 17.2463 0.739831 17.0115 0.912941 16.8384C1.08605 16.6653 1.32084 16.568 1.56566 16.568H4.33489C4.5797 16.568 4.81449 16.6653 4.9876 16.8384C5.16071 17.0115 5.25796 17.2463 5.25796 17.4911V24.8757Z" stroke="black" stroke-width="1.3" stroke-linecap="round" stroke-linejoin="round"/>
</g>
<defs>
<clipPath id="clip0_1119_6738">
<rect width="24" height="24" fill="white" transform="translate(0 0.138306)"/>
</clipPath>
</defs>
</svg>
