<svg width="45" height="30" viewBox="0 0 45 30" fill="none" xmlns="http://www.w3.org/2000/svg">
<rect y="0.0874023" width="45" height="29" rx="4" fill="white"/>
<path d="M23.0637 12.0874C24.76 12.0874 26.1351 13.3802 26.1351 14.9773V14.9791C26.1351 16.5762 24.76 17.8708 23.0637 17.8708C21.3673 17.8708 19.9922 16.5762 19.9922 14.9791V14.9773C19.9922 13.3802 21.3673 12.0874 23.0637 12.0874Z" fill="#F47216"/>
<path d="M18.2408 12.1248C18.7253 12.1248 19.1316 12.2226 19.6263 12.4587V13.7061C19.1579 13.275 18.7516 13.0946 18.2141 13.0946C17.1579 13.0946 16.3274 13.9178 16.3274 14.9615C16.3274 16.0621 17.1323 16.8363 18.2665 16.8363C18.7771 16.8363 19.1759 16.6653 19.6263 16.2411V17.4892C19.1141 17.7163 18.6991 17.8059 18.2141 17.8059C16.4993 17.8059 15.1668 16.5669 15.1668 14.9693C15.1667 13.3886 16.5347 12.1248 18.2408 12.1248ZM12.9164 12.1591C13.5494 12.1591 14.1286 12.3631 14.6129 12.7618L14.0236 13.4882C13.7302 13.1786 13.4528 13.0481 13.1155 13.0481C12.63 13.0481 12.2766 13.3082 12.2766 13.6505C12.2766 13.9441 12.4749 14.0995 13.1507 14.3348C14.4317 14.7758 14.8114 15.1669 14.8114 16.0304C14.8114 17.0827 13.9903 17.8153 12.8201 17.8153C11.9631 17.8153 11.3402 17.4976 10.8213 16.7806L11.5487 16.1211C11.8081 16.593 12.2408 16.846 12.778 16.846C13.2803 16.846 13.6523 16.5198 13.6523 16.0794C13.6523 15.8511 13.5396 15.6554 13.3147 15.517C13.2014 15.4515 12.977 15.3537 12.5362 15.2074C11.4784 14.849 11.1156 14.4658 11.1156 13.7169C11.1155 12.8272 11.8949 12.1591 12.9164 12.1591ZM25.7855 12.2539H27.0156L28.5553 15.9049L30.115 12.2539H31.3359L28.8416 17.8293H28.2355L25.7855 12.2539ZM9.27093 12.2622H10.3971V17.698H9.27093V12.2622ZM31.845 12.2622H35.0388V13.1833H32.9704V14.3898H34.9626V15.3104H32.9704V16.7777H35.0388V17.698H31.845V12.2622ZM38.1825 15.408C39.0307 15.2455 39.4974 14.6993 39.4974 13.8671C39.4974 12.8494 38.7531 12.2623 37.4542 12.2623H35.7845V17.6981H36.9093V15.5143H37.0563L38.6151 17.698H40L38.1825 15.408ZM37.2385 14.7646H36.9094V13.1184H37.2562C37.9575 13.1184 38.3387 13.3952 38.3387 13.9242C38.3388 14.4707 37.9576 14.7646 37.2385 14.7646ZM5.65299 12.2622H4V17.698H5.64438C6.51866 17.698 7.15021 17.5037 7.70441 17.0705C8.3631 16.5573 8.75254 15.7838 8.75254 14.9839C8.7526 13.3797 7.4794 12.2622 5.65299 12.2622ZM6.96868 16.3457C6.61482 16.6464 6.15521 16.7777 5.42759 16.7777H5.12528V13.1833H5.42754C6.15515 13.1833 6.59662 13.306 6.96863 13.6229C7.35812 13.9494 7.5924 14.4554 7.5924 14.9761C7.59245 15.4977 7.35812 16.0191 6.96868 16.3457Z" fill="black"/>
</svg>
