<svg width="56" height="43" viewBox="0 0 56 43" fill="none" xmlns="http://www.w3.org/2000/svg">
<g clip-path="url(#clip0_1119_8298)">
<g clip-path="url(#clip1_1119_8298)">
<mask id="mask0_1119_8298" style="mask-type:luminance" maskUnits="userSpaceOnUse" x="0" y="0" width="56" height="43">
<path d="M49 0.471191H7C3.13401 0.471191 0 3.6052 0 7.47119V35.4712C0 39.3372 3.13401 42.4712 7 42.4712H49C52.866 42.4712 56 39.3372 56 35.4712V7.47119C56 3.6052 52.866 0.471191 49 0.471191Z" fill="white"/>
</mask>
<g mask="url(#mask0_1119_8298)">
<path d="M0 0.471191H56V42.4712H0V0.471191Z" fill="#74ACDF"/>
<path d="M0 14.4712H56V28.4712H0V14.4712Z" fill="#F4F4F4"/>
<path d="M27.7305 21.5805L30.1245 26.7885C30.1245 26.7885 30.1665 26.8893 30.2337 26.8641C30.3009 26.8305 30.2589 26.7381 30.2589 26.7381L28.2681 21.3621M28.2093 23.3865C28.1757 24.1761 28.6629 24.6129 28.6041 25.3185C28.5369 26.0325 28.9233 26.4273 29.0241 26.7045C29.1081 26.9817 28.9149 27.1413 28.9989 27.1833C29.0829 27.2253 29.2509 27.0069 29.2005 26.6121C29.1417 26.2257 28.8477 26.1081 28.9149 25.2429C28.9821 24.3777 28.5621 24.1761 28.6629 23.3949" fill="#F6B40E"/>
<path d="M27.7305 21.5805L30.1245 26.7885C30.1245 26.7885 30.1665 26.8893 30.2337 26.8641C30.3009 26.8305 30.2589 26.7381 30.2589 26.7381L28.2681 21.3621M28.2093 23.3865C28.1757 24.1761 28.6629 24.6129 28.6041 25.3185C28.5369 26.0325 28.9233 26.4273 29.0241 26.7045C29.1081 26.9817 28.9149 27.1413 28.9989 27.1833C29.0829 27.2253 29.2509 27.0069 29.2005 26.6121C29.1417 26.2257 28.8477 26.1081 28.9149 25.2429C28.9821 24.3777 28.5621 24.1761 28.6629 23.3949" stroke="#85340A" stroke-width="0.0924"/>
<path d="M27.7108 21.469L27.9296 27.1967C27.9296 27.1967 27.9298 27.3059 28.0015 27.3083C28.0764 27.303 28.073 27.2016 28.073 27.2016L28.2911 21.4729M27.462 23.3208C27.1288 24.0374 27.4118 24.6274 27.0875 25.2568C26.7521 25.8907 26.958 26.4033 26.9451 26.698C26.9166 26.9863 26.677 27.0598 26.7386 27.1307C26.8001 27.2016 27.0389 27.0642 27.1434 26.6801C27.2369 26.3006 27.0103 26.0795 27.4035 25.3058C27.7967 24.5323 27.4858 24.1853 27.8779 23.5021" fill="#F6B40E"/>
<path d="M27.7108 21.469L27.9296 27.1967C27.9296 27.1967 27.9298 27.3059 28.0015 27.3083C28.0764 27.303 28.073 27.2016 28.073 27.2016L28.2911 21.4729M27.462 23.3208C27.1288 24.0374 27.4118 24.6274 27.0875 25.2568C26.7521 25.8907 26.958 26.4033 26.9451 26.698C26.9166 26.9863 26.677 27.0598 26.7386 27.1307C26.8001 27.2016 27.0389 27.0642 27.1434 26.6801C27.2369 26.3006 27.0103 26.0795 27.4035 25.3058C27.7967 24.5323 27.4858 24.1853 27.8779 23.5021" stroke="#85340A" stroke-width="0.0924"/>
<path d="M27.7314 21.3579L25.7416 26.7334C25.7416 26.7334 25.7 26.8343 25.7653 26.864C25.8366 26.8878 25.8723 26.7927 25.8723 26.7927L28.266 21.5836M26.7929 22.9735C26.2108 23.5081 26.2465 24.1614 25.7059 24.6188C25.1536 25.0762 25.1476 25.6285 25.0229 25.8958C24.8862 26.1512 24.6368 26.1275 24.6665 26.2165C24.6962 26.3057 24.9694 26.27 25.2129 25.9552C25.4446 25.6404 25.3199 25.3494 25.9791 24.7851C26.6385 24.2208 26.4841 23.7813 27.1077 23.3002" fill="#F6B40E"/>
<path d="M27.7314 21.3579L25.7416 26.7334C25.7416 26.7334 25.7 26.8343 25.7653 26.864C25.8366 26.8878 25.8723 26.7927 25.8723 26.7927L28.266 21.5836M26.7929 22.9735C26.2108 23.5081 26.2465 24.1614 25.7059 24.6188C25.1536 25.0762 25.1476 25.6285 25.0229 25.8958C24.8862 26.1512 24.6368 26.1275 24.6665 26.2165C24.6962 26.3057 24.9694 26.27 25.2129 25.9552C25.4446 25.6404 25.3199 25.3494 25.9791 24.7851C26.6385 24.2208 26.4841 23.7813 27.1077 23.3002" stroke="#85340A" stroke-width="0.0924"/>
<path d="M27.7945 21.2642L23.8992 25.469C23.8992 25.469 23.8221 25.5463 23.8711 25.5988C23.9279 25.648 23.9972 25.5739 23.9972 25.5739L28.2021 21.6773M26.3093 22.3977C25.5669 22.6688 25.3498 23.286 24.6754 23.5018C23.99 23.7129 23.7732 24.221 23.5556 24.4202C23.3317 24.6039 23.1103 24.4865 23.1036 24.5801C23.097 24.6738 23.3631 24.7455 23.7085 24.5478C24.043 24.3456 24.0392 24.029 24.8642 23.76C25.6893 23.4909 25.7148 23.0258 26.4751 22.82" fill="#F6B40E"/>
<path d="M27.7945 21.2642L23.8992 25.469C23.8992 25.469 23.8221 25.5463 23.8711 25.5988C23.9279 25.648 23.9972 25.5739 23.9972 25.5739L28.2021 21.6773M26.3093 22.3977C25.5669 22.6688 25.3498 23.286 24.6754 23.5018C23.99 23.7129 23.7732 24.221 23.5556 24.4202C23.3317 24.6039 23.1103 24.4865 23.1036 24.5801C23.097 24.6738 23.3631 24.7455 23.7085 24.5478C24.043 24.3456 24.0392 24.029 24.8642 23.76C25.6893 23.4909 25.7148 23.0258 26.4751 22.82" stroke="#85340A" stroke-width="0.0924"/>
<path d="M28.3608 23.5204C28.4028 24.2764 28.8312 24.6124 28.7472 25.3096C28.932 24.7636 28.4868 24.3352 28.512 23.5288M27.8652 21.5296L29.5032 25.108L28.134 21.4204" fill="#85340A"/>
<path d="M27.5484 23.5028C27.2979 24.2173 27.5651 24.6917 27.2207 25.3036C27.6004 24.8699 27.353 24.3038 27.6849 23.5684M27.8524 21.4739L27.9963 25.4067L28.1425 21.4758" fill="#85340A"/>
<path d="M26.8045 23.1759C26.2996 23.7402 26.3649 24.2807 25.8125 24.7143C26.3292 24.4589 26.3174 23.8411 26.9054 23.2888M27.8617 21.4177L26.4897 25.1063L28.129 21.5306" fill="#85340A"/>
<path d="M26.2434 22.5891C25.5611 22.9172 25.4146 23.4416 24.7383 23.6308C25.3134 23.5926 25.5389 23.0173 26.2935 22.732M27.893 21.3694L25.2139 24.2521L28.0967 21.576" fill="#85340A"/>
<path d="M27.8911 21.2026L22.6831 23.5966C22.6831 23.5966 22.5823 23.6386 22.6075 23.7058C22.6411 23.773 22.7335 23.731 22.7335 23.731L28.1095 21.7402M26.0851 21.6814C25.2955 21.6478 24.8587 22.135 24.1531 22.0762C23.4391 22.009 23.0443 22.3954 22.7671 22.4962C22.4899 22.5802 22.3303 22.387 22.2883 22.471C22.2463 22.555 22.4647 22.723 22.8595 22.6726C23.2459 22.6138 23.3635 22.3198 24.2287 22.387C25.0939 22.4542 25.2955 22.0342 26.0767 22.135" fill="#F6B40E"/>
<path d="M27.8911 21.2026L22.6831 23.5966C22.6831 23.5966 22.5823 23.6386 22.6075 23.7058C22.6411 23.773 22.7335 23.731 22.7335 23.731L28.1095 21.7402M26.0851 21.6814C25.2955 21.6478 24.8587 22.135 24.1531 22.0762C23.4391 22.009 23.0443 22.3954 22.7671 22.4962C22.4899 22.5802 22.3303 22.387 22.2883 22.471C22.2463 22.555 22.4647 22.723 22.8595 22.6726C23.2459 22.6138 23.3635 22.3198 24.2287 22.387C25.0939 22.4542 25.2955 22.0342 26.0767 22.135" stroke="#85340A" stroke-width="0.0924"/>
<path d="M28.0015 21.181L22.2738 21.3998C22.2738 21.3998 22.1646 21.4001 22.1621 21.4717C22.1675 21.5467 22.2689 21.5433 22.2689 21.5433L27.9975 21.7613M26.1497 20.9322C25.4331 20.599 24.8431 20.8821 24.2137 20.5577C23.5797 20.2224 23.0671 20.4282 22.7725 20.4153C22.4842 20.3868 22.4107 20.1473 22.3398 20.2088C22.2689 20.2703 22.4063 20.5091 22.7904 20.6137C23.1698 20.7072 23.391 20.4806 24.1646 20.8737C24.9382 21.2669 25.2852 20.956 25.9684 21.3481" fill="#F6B40E"/>
<path d="M28.0015 21.181L22.2738 21.3998C22.2738 21.3998 22.1646 21.4001 22.1621 21.4717C22.1675 21.5467 22.2689 21.5433 22.2689 21.5433L27.9975 21.7613M26.1497 20.9322C25.4331 20.599 24.8431 20.8821 24.2137 20.5577C23.5797 20.2224 23.0671 20.4282 22.7725 20.4153C22.4842 20.3868 22.4107 20.1473 22.3398 20.2088C22.2689 20.2703 22.4063 20.5091 22.7904 20.6137C23.1698 20.7072 23.391 20.4806 24.1646 20.8737C24.9382 21.2669 25.2852 20.956 25.9684 21.3481" stroke="#85340A" stroke-width="0.0924"/>
<path d="M28.1114 21.2035L22.7361 19.2137C22.7361 19.2137 22.6351 19.1721 22.6054 19.2375C22.5816 19.3088 22.6766 19.3444 22.6766 19.3444L27.8858 21.7381M26.4958 20.265C25.9613 19.683 25.3079 19.7186 24.8506 19.1781C24.3933 18.6257 23.8408 18.6198 23.5736 18.495C23.3181 18.3585 23.3419 18.109 23.2528 18.1387C23.1637 18.1683 23.1993 18.4416 23.5141 18.6851C23.829 18.9168 24.12 18.792 24.6842 19.4513C25.2485 20.1106 25.688 19.9562 26.1692 20.5799" fill="#F6B40E"/>
<path d="M28.1114 21.2035L22.7361 19.2137C22.7361 19.2137 22.6351 19.1721 22.6054 19.2375C22.5816 19.3088 22.6766 19.3444 22.6766 19.3444L27.8858 21.7381M26.4958 20.2651C25.9613 19.683 25.3079 19.7186 24.8506 19.1781C24.3933 18.6257 23.8408 18.6198 23.5736 18.495C23.3181 18.3585 23.3419 18.109 23.2528 18.1387C23.1637 18.1683 23.1993 18.4416 23.5141 18.6851C23.829 18.9168 24.12 18.792 24.6842 19.4513C25.2485 20.1106 25.688 19.9562 26.1692 20.5799" stroke="#85340A" stroke-width="0.0924"/>
<path d="M28.2069 21.2677L24.0021 17.3723C24.0021 17.3723 23.9248 17.2953 23.8723 17.3443C23.8231 17.401 23.8973 17.4703 23.8973 17.4703L27.7938 21.6752M27.0734 19.7824C26.8023 19.0401 26.1851 18.8229 25.9693 18.1486C25.7582 17.4632 25.2501 17.2463 25.0509 17.0288C24.8672 16.8048 24.9846 16.5834 24.891 16.5768C24.7973 16.5701 24.7256 16.8362 24.9233 17.1817C25.1255 17.5161 25.4422 17.5123 25.7112 18.3374C25.9802 19.1624 26.4453 19.1879 26.6511 19.9483" fill="#F6B40E"/>
<path d="M28.2069 21.2677L24.0021 17.3723C24.0021 17.3723 23.9248 17.2953 23.8723 17.3443C23.8231 17.401 23.8973 17.4703 23.8973 17.4703L27.7938 21.6752M27.0734 19.7824C26.8023 19.0401 26.1851 18.8229 25.9693 18.1486C25.7582 17.4632 25.2501 17.2463 25.0509 17.0288C24.8672 16.8048 24.9846 16.5834 24.891 16.5768C24.7973 16.5701 24.7256 16.8362 24.9233 17.1817C25.1255 17.5161 25.4422 17.5123 25.7112 18.3374C25.9802 19.1624 26.4453 19.1879 26.6511 19.9483" stroke="#85340A" stroke-width="0.0924"/>
<path d="M25.9494 21.832C25.1934 21.874 24.8574 22.3024 24.1602 22.2184C24.7062 22.4032 25.1346 21.958 25.941 21.9832M27.9402 21.3364L24.3618 22.9744L28.0494 21.6052" fill="#85340A"/>
<path d="M25.9664 21.0206C25.2519 20.7701 24.7775 21.0373 24.1655 20.6929C24.5993 21.0726 25.1654 20.8252 25.9008 21.157M27.9953 21.3246L24.0625 21.4685L27.9933 21.6147" fill="#85340A"/>
<path d="M26.2937 20.2775C25.7294 19.7727 25.1889 19.838 24.7553 19.2856C25.0107 19.8024 25.6284 19.7906 26.1808 20.3786M28.0518 21.3348L24.3633 19.9628L27.939 21.6022" fill="#85340A"/>
<path d="M26.8817 19.7158C26.5537 19.0335 26.0293 18.887 25.8401 18.2107C25.8783 18.7859 26.4536 19.0113 26.7389 19.766M28.1015 21.3655L25.2188 18.6863L27.8949 21.5692" fill="#85340A"/>
<path d="M28.2699 21.3623L25.8759 16.1543C25.8759 16.1543 25.8339 16.0535 25.7667 16.0787C25.6995 16.1123 25.7415 16.2047 25.7415 16.2047L27.7323 21.5807M27.7911 19.5563C27.8247 18.7667 27.3375 18.3299 27.3963 17.6243C27.4635 16.9103 27.0771 16.5155 26.9763 16.2383C26.8923 15.9611 27.0855 15.8015 27.0015 15.7595C26.9175 15.7175 26.7495 15.9359 26.7999 16.3307C26.8587 16.7171 27.1527 16.8347 27.0855 17.6999C27.0183 18.5651 27.4383 18.7667 27.3375 19.5479" fill="#F6B40E"/>
<path d="M28.2699 21.3623L25.8759 16.1543C25.8759 16.1543 25.8339 16.0535 25.7667 16.0787C25.6995 16.1123 25.7415 16.2047 25.7415 16.2047L27.7323 21.5807M27.7911 19.5563C27.8247 18.7667 27.3375 18.3299 27.3963 17.6243C27.4635 16.9103 27.0771 16.5155 26.9763 16.2383C26.8923 15.9611 27.0855 15.8015 27.0015 15.7595C26.9175 15.7175 26.7495 15.9359 26.7999 16.3307C26.8587 16.7171 27.1527 16.8347 27.0855 17.6999C27.0183 18.5651 27.4383 18.7667 27.3375 19.5479" stroke="#85340A" stroke-width="0.0924"/>
<path d="M28.2892 21.4736L28.0705 15.7459C28.0705 15.7459 28.0703 15.6367 27.9985 15.6343C27.9236 15.6396 27.927 15.741 27.927 15.741L27.709 21.4697M28.538 19.6218C28.8712 18.9052 28.5883 18.3152 28.9126 17.6858C29.2479 17.0519 29.042 16.5393 29.0549 16.2446C29.0834 15.9563 29.323 15.8828 29.2614 15.8119C29.1999 15.741 28.9611 15.8784 28.8566 16.2625C28.7631 16.642 28.9897 16.8631 28.5965 17.6368C28.2033 18.4103 28.5142 18.7573 28.1221 19.4405" fill="#F6B40E"/>
<path d="M28.2892 21.4736L28.0705 15.7459C28.0705 15.7459 28.0703 15.6367 27.9985 15.6343C27.9236 15.6396 27.927 15.741 27.927 15.741L27.709 21.4697M28.538 19.6218C28.8712 18.9052 28.5883 18.3152 28.9126 17.6858C29.2479 17.0519 29.042 16.5393 29.0549 16.2446C29.0834 15.9563 29.323 15.8828 29.2614 15.8119C29.1999 15.741 28.9611 15.8784 28.8566 16.2625C28.7631 16.642 28.9897 16.8631 28.5965 17.6368C28.2033 18.4103 28.5142 18.7573 28.1221 19.4405" stroke="#85340A" stroke-width="0.0924"/>
<path d="M28.267 21.5836L30.2568 16.2082C30.2568 16.2082 30.2984 16.1072 30.2331 16.0776C30.1618 16.0538 30.1261 16.1488 30.1261 16.1488L27.7324 21.3579M29.2055 19.968C29.7876 19.4334 29.7519 18.7801 30.2925 18.3227C30.8448 17.8654 30.8508 17.313 30.9755 17.0457C31.1122 16.7903 31.3616 16.814 31.3319 16.725C31.3022 16.6359 31.029 16.6715 30.7855 16.9863C30.5538 17.3011 30.6785 17.5921 30.0193 18.1564C29.3599 18.7207 29.5143 19.1602 28.8907 19.6413" fill="#F6B40E"/>
<path d="M28.267 21.5836L30.2568 16.2082C30.2568 16.2082 30.2984 16.1072 30.2331 16.0776C30.1618 16.0538 30.1261 16.1488 30.1261 16.1488L27.7324 21.3579M29.2055 19.968C29.7876 19.4334 29.7519 18.7801 30.2925 18.3227C30.8448 17.8654 30.8508 17.313 30.9755 17.0457C31.1122 16.7903 31.3616 16.814 31.3319 16.725C31.3022 16.6359 31.029 16.6715 30.7855 16.9863C30.5538 17.3011 30.6785 17.5921 30.0193 18.1564C29.3599 18.7207 29.5143 19.1602 28.8907 19.6413" stroke="#85340A" stroke-width="0.0924"/>
<path d="M28.2044 21.6782L32.0998 17.4733C32.0998 17.4733 32.1768 17.396 32.1278 17.3436C32.0711 17.2943 32.0018 17.3685 32.0018 17.3685L27.7969 21.265M29.6897 20.5447C30.432 20.2735 30.6492 19.6563 31.3235 19.4405C32.0089 19.2294 32.2258 18.7214 32.4433 18.5221C32.6673 18.3385 32.8887 18.4559 32.8953 18.3622C32.902 18.2685 32.6359 18.1969 32.2905 18.3945C31.9559 18.5967 31.9598 18.9133 31.1348 19.1823C30.3097 19.4514 30.2842 19.9165 29.5238 20.1223" fill="#F6B40E"/>
<path d="M28.2044 21.6782L32.0998 17.4733C32.0998 17.4733 32.1768 17.396 32.1278 17.3436C32.0711 17.2943 32.0018 17.3685 32.0018 17.3685L27.7969 21.265M29.6897 20.5447C30.432 20.2735 30.6492 19.6563 31.3235 19.4405C32.0089 19.2294 32.2258 18.7214 32.4433 18.5221C32.6673 18.3385 32.8887 18.4559 32.8953 18.3622C32.902 18.2685 32.6359 18.1969 32.2905 18.3945C31.9559 18.5967 31.9598 18.9133 31.1348 19.1823C30.3097 19.4514 30.2842 19.9165 29.5238 20.1223" stroke="#85340A" stroke-width="0.0924"/>
<path d="M27.6404 19.4215C27.5984 18.6655 27.17 18.3295 27.254 17.6323C27.0692 18.1783 27.5144 18.6067 27.4892 19.4131M28.136 21.4123L26.498 17.8339L27.8672 21.5215" fill="#85340A"/>
<path d="M28.4515 19.4396C28.702 18.725 28.4349 18.2506 28.7793 17.6387C28.3996 18.0724 28.647 18.6386 28.3151 19.3739M28.1476 21.4685L28.0037 17.5356L27.8574 21.4665" fill="#85340A"/>
<path d="M29.1956 19.7668C29.7005 19.2025 29.6352 18.6621 30.1876 18.2284C29.6709 18.4839 29.6827 19.1016 29.0947 19.654M28.1384 21.525L29.5104 17.8364L27.8711 21.4121" fill="#85340A"/>
<path d="M29.7557 20.3529C30.438 20.0248 30.5845 19.5005 31.2608 19.3113C30.6857 19.3495 30.4602 19.9247 29.7055 20.2101M28.106 21.5727L30.7852 18.6899L27.9023 21.3661" fill="#85340A"/>
<path d="M28.109 21.7401L33.317 19.3461C33.317 19.3461 33.4178 19.3041 33.3926 19.2369C33.359 19.1697 33.2666 19.2117 33.2666 19.2117L27.8906 21.2025M29.915 21.2613C30.7046 21.2949 31.1414 20.8077 31.847 20.8665C32.561 20.9337 32.9558 20.5473 33.233 20.4465C33.5102 20.3625 33.6698 20.5557 33.7118 20.4717C33.7538 20.3877 33.5354 20.2197 33.1406 20.2701C32.7542 20.3289 32.6366 20.6229 31.7714 20.5557C30.9062 20.4885 30.7046 20.9085 29.9234 20.8077" fill="#F6B40E"/>
<path d="M28.109 21.7401L33.317 19.3461C33.317 19.3461 33.4178 19.3041 33.3926 19.2369C33.359 19.1697 33.2666 19.2117 33.2666 19.2117L27.8906 21.2025M29.915 21.2613C30.7046 21.2949 31.1414 20.8077 31.847 20.8665C32.561 20.9337 32.9558 20.5473 33.233 20.4465C33.5102 20.3625 33.6698 20.5557 33.7118 20.4717C33.7538 20.3877 33.5354 20.2197 33.1406 20.2701C32.7542 20.3289 32.6366 20.6229 31.7714 20.5557C30.9062 20.4885 30.7046 20.9085 29.9234 20.8077" stroke="#85340A" stroke-width="0.0924"/>
<path d="M27.998 21.7615L33.7258 21.5427C33.7258 21.5427 33.835 21.5424 33.8374 21.4707C33.8321 21.3958 33.7306 21.3992 33.7306 21.3992L28.002 21.1812M29.8498 22.0102C30.5665 22.3434 31.1564 22.0604 31.7858 22.3848C32.4198 22.7201 32.9324 22.5142 33.227 22.5272C33.5153 22.5557 33.5888 22.7952 33.6598 22.7337C33.7307 22.6722 33.5932 22.4334 33.2092 22.3288C32.8297 22.2353 32.6085 22.4619 31.835 22.0688C31.0613 21.6756 30.7143 21.9864 30.0312 21.5944" fill="#F6B40E"/>
<path d="M27.998 21.7615L33.7258 21.5427C33.7258 21.5427 33.835 21.5424 33.8374 21.4707C33.8321 21.3958 33.7306 21.3992 33.7306 21.3992L28.002 21.1812M29.8498 22.0102C30.5665 22.3434 31.1564 22.0604 31.7858 22.3848C32.4198 22.7201 32.9324 22.5142 33.227 22.5272C33.5153 22.5557 33.5888 22.7952 33.6598 22.7337C33.7307 22.6722 33.5932 22.4334 33.2092 22.3288C32.8297 22.2353 32.6085 22.4619 31.835 22.0688C31.0613 21.6756 30.7143 21.9864 30.0312 21.5944" stroke="#85340A" stroke-width="0.0924"/>
<path d="M27.8887 21.7382L33.264 23.728C33.264 23.728 33.3651 23.7696 33.3947 23.7042C33.4185 23.633 33.3235 23.5973 33.3235 23.5973L28.1144 21.2036M29.5043 22.6767C30.0388 23.2587 30.6922 23.2231 31.1496 23.7637C31.6069 24.316 32.1593 24.322 32.4266 24.4467C32.682 24.5833 32.6582 24.8328 32.7473 24.8031C32.8364 24.7734 32.8008 24.5002 32.486 24.2567C32.1711 24.025 31.8801 24.1497 31.3159 23.4904C30.7516 22.8311 30.3121 22.9855 29.8309 22.3618" fill="#F6B40E"/>
<path d="M27.8887 21.7382L33.264 23.728C33.264 23.728 33.3651 23.7696 33.3947 23.7042C33.4185 23.633 33.3235 23.5973 33.3235 23.5973L28.1144 21.2036M29.5043 22.6767C30.0388 23.2587 30.6922 23.2231 31.1496 23.7637C31.6069 24.316 32.1593 24.322 32.4266 24.4467C32.682 24.5833 32.6582 24.8328 32.7473 24.8031C32.8364 24.7734 32.8008 24.5002 32.486 24.2567C32.1711 24.025 31.8801 24.1497 31.3159 23.4904C30.7516 22.8311 30.3121 22.9855 29.8309 22.3618" stroke="#85340A" stroke-width="0.0924"/>
<path d="M27.793 21.6746L31.9978 25.5701C31.9978 25.5701 32.0751 25.6471 32.1276 25.5981C32.1768 25.5414 32.1027 25.4721 32.1027 25.4721L28.2061 21.2671M28.9265 23.1599C29.1976 23.9022 29.8149 24.1194 30.0306 24.7938C30.2417 25.4791 30.7498 25.696 30.949 25.9136C31.1327 26.1375 31.0153 26.3589 31.1089 26.3655C31.2026 26.3722 31.2743 26.1061 31.0766 25.7607C30.8744 25.4262 30.5578 25.4301 30.2887 24.605C30.0197 23.78 29.5546 23.7544 29.3488 22.9941" fill="#F6B40E"/>
<path d="M27.793 21.6746L31.9978 25.5701C31.9978 25.5701 32.0751 25.6471 32.1276 25.5981C32.1768 25.5414 32.1027 25.4721 32.1027 25.4721L28.2061 21.2671M28.9265 23.1599C29.1976 23.9022 29.8149 24.1194 30.0306 24.7938C30.2417 25.4791 30.7498 25.696 30.949 25.9136C31.1327 26.1375 31.0153 26.3589 31.1089 26.3655C31.2026 26.3722 31.2743 26.1061 31.0766 25.7607C30.8744 25.4262 30.5578 25.4301 30.2887 24.605C30.0197 23.78 29.5546 23.7544 29.3488 22.9941" stroke="#85340A" stroke-width="0.0924"/>
<path d="M30.0492 21.1097C30.8052 21.0677 31.1412 20.6393 31.8384 20.7233C31.2924 20.5385 30.864 20.9837 30.0576 20.9585M28.0584 21.6053L31.6368 19.9673L27.9492 21.3365" fill="#85340A"/>
<path d="M30.0328 21.922C30.7473 22.1725 31.2217 21.9053 31.8337 22.2497C31.4 21.87 30.8338 22.1174 30.0984 21.7855M28.0039 21.618L31.9367 21.4741L28.0059 21.3279" fill="#85340A"/>
<path d="M29.7054 22.6652C30.2697 23.17 30.8102 23.1047 31.2438 23.6571C30.9883 23.1403 30.3707 23.1522 29.8182 22.5642M27.9473 21.6079L31.6358 22.98L28.0601 21.3406" fill="#85340A"/>
<path d="M29.1182 23.2269C29.4463 23.9093 29.9706 24.0558 30.1599 24.7321C30.1216 24.1569 29.5464 23.9315 29.2611 23.1768M27.8984 21.5773L30.7812 24.2565L28.105 21.3735" fill="#85340A"/>
<path d="M28.0003 23.8075C29.2906 23.8075 30.3366 22.7615 30.3366 21.4713C30.3366 20.1809 29.2906 19.135 28.0003 19.135C26.7101 19.135 25.6641 20.1809 25.6641 21.4713C25.6641 22.7615 26.7101 23.8075 28.0003 23.8075Z" fill="#F6B40E" stroke="#85340A" stroke-width="0.1225"/>
<path d="M28.797 20.9722C28.6395 20.9722 28.482 21.0422 28.3945 21.1822C28.5695 21.3484 28.972 21.3572 29.2433 21.1647C29.186 21.1038 29.1168 21.0554 29.0401 21.0223C28.9634 20.9892 28.8806 20.9721 28.797 20.9722ZM28.797 21.0072C28.9458 21.0072 29.0945 21.0772 29.112 21.1472C28.937 21.3484 28.6483 21.3222 28.4645 21.1822C28.4997 21.1264 28.549 21.0809 28.6074 21.0502C28.6657 21.0195 28.7312 21.0046 28.797 21.0072Z" fill="#843511"/>
<path d="M28.8218 20.8586C28.5856 20.8586 28.5331 20.9199 28.4281 21.0074C28.3231 21.0949 28.2618 21.0774 28.2531 21.0949C28.2268 21.1124 28.2531 21.1649 28.2793 21.1474C28.3231 21.1299 28.3931 21.0949 28.4981 21.0074C28.6031 20.9199 28.7168 20.9199 28.8218 20.9199C29.1456 20.9199 29.3206 21.1824 29.3643 21.1649C29.3906 21.1474 29.1806 20.8586 28.8218 20.8586Z" fill="#85340A"/>
<path d="M29.47 20.9722C29.0587 20.6134 28.5337 20.5522 28.245 20.8234C28.1772 20.9134 28.1322 21.0185 28.1137 21.1297C28.0787 21.3309 28.14 21.5497 28.2975 21.7772L28.2275 21.8122C28.0901 21.5614 28.0408 21.2718 28.0875 20.9897C28.0989 20.9211 28.1165 20.8538 28.14 20.7884C28.5337 20.4647 29.0762 20.4384 29.47 20.9634V20.9722Z" fill="#85340A"/>
<path d="M28.7873 21.3137C28.8792 21.3137 28.9536 21.2393 28.9536 21.1475C28.9536 21.0557 28.8792 20.9812 28.7873 20.9812C28.6956 20.9812 28.6211 21.0557 28.6211 21.1475C28.6211 21.2393 28.6956 21.3137 28.7873 21.3137Z" fill="#85340A"/>
<path d="M29.2505 21.2525C28.9442 21.4888 28.638 21.4713 28.463 21.3663C28.288 21.2525 28.288 21.2175 28.323 21.2175C28.358 21.2175 28.393 21.2525 28.533 21.3312C28.6817 21.4012 28.8917 21.4013 29.2505 21.2525Z" fill="#85340A"/>
<path d="M27.6513 21.7954C27.6232 21.7982 27.5963 21.8081 27.5731 21.8242C27.5499 21.8403 27.5312 21.862 27.5187 21.8874C27.5063 21.9126 27.5005 21.9407 27.5019 21.9689C27.5033 21.9971 27.5117 22.0245 27.5267 22.0484C27.5416 22.0724 27.5623 22.0922 27.5869 22.106C27.6116 22.1197 27.6393 22.127 27.6675 22.127C27.6957 22.127 27.7235 22.12 27.7482 22.1063C27.7729 22.0927 27.7938 22.073 27.8088 22.0491C27.8664 22.0849 27.9334 22.1032 28.0013 22.1016H28.0188C28.0897 22.1055 28.16 22.0871 28.22 22.0491C28.2362 22.0713 28.2576 22.0892 28.2823 22.1011C28.3071 22.113 28.3344 22.1186 28.3618 22.1173C28.3892 22.1161 28.4159 22.1081 28.4395 22.0941C28.4631 22.08 28.4829 22.0603 28.4969 22.0367C28.5111 22.0132 28.5192 21.9865 28.5204 21.9591C28.5218 21.9317 28.5162 21.9044 28.5044 21.8796C28.4926 21.8548 28.4748 21.8334 28.4527 21.8171C28.4305 21.8009 28.4047 21.7904 28.3775 21.7866C28.4213 21.8129 28.4475 21.8478 28.4475 21.9003C28.4475 21.9528 28.4038 22.0054 28.3425 22.0054C28.3146 22.0054 28.288 21.9942 28.2682 21.9746C28.2486 21.9549 28.2375 21.9282 28.2375 21.9003C28.2168 21.9436 28.1846 21.9802 28.1445 22.0064C28.1044 22.0327 28.0579 22.0474 28.01 22.0491C27.9637 22.0459 27.9189 22.0304 27.8805 22.0043C27.8421 21.9781 27.8113 21.9423 27.7913 21.9003C27.7913 21.9149 27.7883 21.9293 27.7825 21.9427C27.7767 21.956 27.7682 21.968 27.7574 21.9779C27.7467 21.9877 27.7341 21.9953 27.7203 22C27.7066 22.0047 27.692 22.0066 27.6775 22.0054C27.625 22.0054 27.5725 21.9528 27.5725 21.9003C27.5725 21.8478 27.5988 21.8129 27.6425 21.7954H27.6513ZM27.8263 22.2766C27.6425 22.2766 27.5637 22.4341 27.4062 22.5391C27.4937 22.5041 27.5725 22.4341 27.695 22.3641C27.8175 22.2941 27.9313 22.3816 28.0013 22.3816C28.0713 22.3816 28.1763 22.2941 28.3075 22.3641C28.43 22.4341 28.5088 22.5041 28.5963 22.5391C28.43 22.4341 28.36 22.2766 28.1763 22.2766C28.1151 22.2828 28.0557 22.3006 28.0013 22.3291C27.9474 22.2976 27.888 22.2767 27.8263 22.2679V22.2766Z" fill="#85340A"/>
<path d="M27.7545 22.4863C27.6845 22.4863 27.597 22.5038 27.457 22.5388C27.7808 22.4688 27.8508 22.5826 27.9995 22.5826C28.1395 22.5826 28.2095 22.4688 28.5333 22.5388C28.1833 22.4338 28.1045 22.5038 27.9995 22.5038C27.9295 22.5038 27.877 22.4776 27.7545 22.4863Z" fill="#85340A"/>
<path d="M27.4763 22.5392H27.4062C27.7825 22.5829 27.6075 22.8017 28.0013 22.8017C28.395 22.8017 28.22 22.5829 28.5963 22.5392C28.2025 22.5042 28.325 22.7404 28.0013 22.7404C27.695 22.7404 27.7913 22.5392 27.4763 22.5392ZM28.325 23.1254C28.325 23.0395 28.2909 22.9572 28.2302 22.8965C28.1695 22.8358 28.0871 22.8017 28.0013 22.8017C27.9154 22.8017 27.833 22.8358 27.7724 22.8965C27.7116 22.9572 27.6775 23.0395 27.6775 23.1254C27.6946 23.0524 27.7359 22.9873 27.7947 22.9406C27.8534 22.8941 27.9262 22.8687 28.0013 22.8687C28.0762 22.8687 28.1491 22.8941 28.2078 22.9406C28.2666 22.9873 28.3079 23.0524 28.325 23.1254Z" fill="#85340A"/>
<path d="M26.5469 20.9722C26.9581 20.6134 27.4831 20.5522 27.7719 20.8234C27.8396 20.9134 27.8846 21.0185 27.9031 21.1297C27.9381 21.3309 27.8769 21.5497 27.7194 21.7772L27.7894 21.8122C27.9268 21.5614 27.9761 21.2718 27.9294 20.9897C27.9179 20.9211 27.9003 20.8538 27.8769 20.7884C27.4831 20.4647 26.9406 20.4384 26.5469 20.9634V20.9722Z" fill="#85340A"/>
<path d="M27.1951 20.8586C27.4313 20.8586 27.4838 20.9199 27.5888 21.0074C27.6938 21.0949 27.7551 21.0774 27.7638 21.0949C27.7901 21.1124 27.7638 21.1649 27.7376 21.1474C27.6938 21.1299 27.6238 21.0949 27.5188 21.0074C27.4138 20.9199 27.3001 20.9199 27.1951 20.9199C26.8713 20.9199 26.6963 21.1824 26.6526 21.1649C26.6263 21.1474 26.8363 20.8586 27.1951 20.8586Z" fill="#85340A"/>
<path d="M27.1857 20.9722C27.0282 20.9722 26.8707 21.0422 26.7832 21.1822C26.9582 21.3484 27.3607 21.3572 27.632 21.1647C27.5746 21.1038 27.5055 21.0554 27.4287 21.0223C27.352 20.9892 27.2693 20.9721 27.1857 20.9722ZM27.1857 21.0072C27.3345 21.0072 27.4832 21.0772 27.5007 21.1472C27.3257 21.3484 27.037 21.3222 26.8532 21.1822C26.8884 21.1264 26.9377 21.0809 26.9961 21.0502C27.0544 21.0195 27.1198 21.0046 27.1857 21.0072Z" fill="#843511"/>
<path d="M27.2034 21.3137C27.2952 21.3137 27.3696 21.2393 27.3696 21.1475C27.3696 21.0557 27.2952 20.9812 27.2034 20.9812C27.1115 20.9812 27.0371 21.0557 27.0371 21.1475C27.0371 21.2393 27.1115 21.3137 27.2034 21.3137Z" fill="#85340A"/>
<path d="M26.7676 21.2525C27.0738 21.4888 27.3801 21.4713 27.5551 21.3663C27.7301 21.2525 27.7301 21.2175 27.6951 21.2175C27.6601 21.2175 27.6251 21.2525 27.4851 21.3312C27.3363 21.4012 27.1263 21.4013 26.7676 21.2525Z" fill="#85340A"/>
</g>
</g>
</g>
<defs>
<clipPath id="clip0_1119_8298">
<rect width="56" height="42" fill="white" transform="translate(0 0.471191)"/>
</clipPath>
<clipPath id="clip1_1119_8298">
<rect width="56" height="42" fill="white" transform="translate(0 0.471191)"/>
</clipPath>
</defs>
</svg>
