<svg width="56" height="43" viewBox="0 0 56 43" fill="none" xmlns="http://www.w3.org/2000/svg">
<g clip-path="url(#clip0_1119_8373)">
<mask id="mask0_1119_8373" style="mask-type:luminance" maskUnits="userSpaceOnUse" x="0" y="0" width="56" height="43">
<path d="M49 0.471191H7C3.13401 0.471191 0 3.6052 0 7.47119V35.4712C0 39.3372 3.13401 42.4712 7 42.4712H49C52.866 42.4712 56 39.3372 56 35.4712V7.47119C56 3.6052 52.866 0.471191 49 0.471191Z" fill="white"/>
</mask>
<g mask="url(#mask0_1119_8373)">
<path d="M0 0.471191H56V42.4712H0V0.471191Z" fill="#000066"/>
<path fill-rule="evenodd" clip-rule="evenodd" d="M26.2322 34.8152L22.4084 35.1477L22.9334 38.9452L20.2997 36.1715L17.6659 38.9452L18.1909 35.1477L14.3672 34.8152L17.6659 32.864L15.5397 29.6702L19.1272 31.0265L20.2997 27.3777L21.4809 31.0265L25.0684 29.6702L22.9422 32.864M42.5772 38.3152L41.6497 36.9327L43.2072 37.519L43.7147 35.9352L44.2222 37.519L45.7797 36.9327L44.8609 38.3152L46.2959 39.164L44.6334 39.3127L44.8609 40.9665L43.7234 39.7502L42.5684 40.9665L42.7959 39.3127L41.1334 39.1727M42.5684 13.6315L41.6497 12.249L43.2072 12.8352L43.7147 11.2515L44.2222 12.8352L45.7797 12.249L44.8609 13.6315L46.2959 14.489L44.6334 14.629L44.8609 16.2827L43.7234 15.0752L42.5684 16.274L42.7959 14.629L41.1334 14.489M33.3197 23.659L32.4009 22.2765L33.9584 22.8627L34.4659 21.279L34.9822 22.8627L36.5397 22.2765L35.6122 23.659L37.0472 24.5077L35.3847 24.6565L35.6209 26.3102L34.4659 25.094L33.3284 26.3102L33.5472 24.6565L31.8847 24.5165M50.8109 21.1915L49.8747 19.809L51.4322 20.3952L51.9397 18.8115L52.4559 20.3952L54.0134 19.809L53.0947 21.1915L54.5209 22.0402L52.8584 22.189L53.0859 23.834L51.9484 22.6265L50.7934 23.834L51.0209 22.189L49.3584 22.0402M47.4247 28.4715L46.5234 29.0402L46.7772 27.999L45.9634 27.3165L47.0222 27.229L47.4247 26.249L47.8359 27.2377L48.8947 27.3165L48.0809 27.999L48.3347 29.0402" fill="#F4F4F4"/>
<path d="M0 0.471191H28V21.4712H0V0.471191Z" fill="#000066"/>
<path d="M3.28125 0.471191L13.9563 8.38994L24.5875 0.471191H28V3.18369L17.5 11.0149L28 18.8024V21.4712H24.5L14 13.6399L3.54375 21.4712H0V18.8462L10.4563 11.0587L0 3.27119V0.471191H3.28125Z" fill="#F4F4F4"/>
<path d="M18.55 12.7649L28 19.7212V21.4712L16.1437 12.7649H18.55ZM10.5 13.6399L10.7625 15.1712L2.3625 21.4712H0L10.5 13.6399ZM28 0.471191V0.602441L17.1062 8.82744L17.1938 6.90244L25.8125 0.471191H28ZM0 0.471191L10.4563 8.17119H7.83125L0 2.30869V0.471191Z" fill="#C8102E"/>
<path d="M10.5437 0.471191V21.4712H17.5437V0.471191H10.5437ZM0 7.47119V14.4712H28V7.47119H0Z" fill="#F4F4F4"/>
<path d="M0 8.91494V13.1149H28V8.91494H0ZM11.9437 0.471191V21.4712H16.1437V0.471191H11.9437Z" fill="#C8102E"/>
</g>
</g>
<defs>
<clipPath id="clip0_1119_8373">
<rect width="56" height="42" fill="white" transform="translate(0 0.471191)"/>
</clipPath>
</defs>
</svg>
