<svg width="56" height="43" viewBox="0 0 56 43" fill="none" xmlns="http://www.w3.org/2000/svg">
<g clip-path="url(#clip0_1119_8391)">
<mask id="mask0_1119_8391" style="mask-type:luminance" maskUnits="userSpaceOnUse" x="0" y="0" width="56" height="43">
<path d="M49 0.471191H7C3.13401 0.471191 0 3.6052 0 7.47119V35.4712C0 39.3372 3.13401 42.4712 7 42.4712H49C52.866 42.4712 56 39.3372 56 35.4712V7.47119C56 3.6052 52.866 0.471191 49 0.471191Z" fill="white"/>
</mask>
<g mask="url(#mask0_1119_8391)">
<path d="M13.1348 0.471191H42.8547V42.4712H13.1349L13.1348 0.471191Z" fill="#F4F4F4"/>
<path d="M-1.7207 0.471191H13.1351V42.4712H-1.7207V0.471191ZM42.8551 0.471191H57.7109V42.4712H42.8634L42.8551 0.471191ZM17.5895 20.7658L16.4246 21.1596L21.7976 25.8763C22.2078 27.0821 21.6583 27.4348 21.3055 28.0747L27.1297 27.3364L26.9902 33.2017L28.2043 33.1688L27.9336 27.3446L33.7742 28.0419C33.4132 27.279 33.0933 26.877 33.4215 25.663L38.7864 21.1922L37.8512 20.8478C37.08 20.2571 38.1793 18.0013 38.3433 16.5739C38.3433 16.5739 35.218 17.6485 35.0129 17.0825L34.209 15.5486L31.3625 18.6821C31.0507 18.756 30.9195 18.6328 30.8458 18.3703L32.1583 11.8244L30.0746 12.9973C29.9023 13.0795 29.73 13.0138 29.6152 12.8087L27.6055 8.78908L25.5382 12.9646C25.3824 13.1122 25.2266 13.1286 25.0953 13.0302L23.1101 11.9146L24.3078 18.4032C24.2094 18.6657 23.9797 18.7313 23.7172 18.5919L20.9856 15.4994C20.6328 16.0736 20.3949 17.0004 19.9192 17.2138C19.4516 17.4106 17.8683 16.82 16.8101 16.5904C17.1711 17.8946 18.3032 20.0603 17.5895 20.7739V20.7658Z" fill="#D52B1E"/>
</g>
</g>
<defs>
<clipPath id="clip0_1119_8391">
<rect width="56" height="42" fill="white" transform="translate(0 0.471191)"/>
</clipPath>
</defs>
</svg>
