<svg width="56" height="43" viewBox="0 0 56 43" fill="none" xmlns="http://www.w3.org/2000/svg">
<g clip-path="url(#clip0_1119_8403)">
<mask id="mask0_1119_8403" style="mask-type:luminance" maskUnits="userSpaceOnUse" x="0" y="0" width="56" height="43">
<path d="M49 0.471191H7C3.13401 0.471191 0 3.6052 0 7.47119V35.4712C0 39.3372 3.13401 42.4712 7 42.4712H49C52.866 42.4712 56 39.3372 56 35.4712V7.47119C56 3.6052 52.866 0.471191 49 0.471191Z" fill="white"/>
</mask>
<g mask="url(#mask0_1119_8403)">
<path d="M0 0.471191H56V42.4712H0V0.471191Z" fill="#DE2910"/>
<path d="M6.71918 16.0114L10.4991 4.67139L14.2791 16.0114L4.19922 9.08139H16.7991L6.71918 16.0114Z" fill="#FFDE00"/>
<path d="M23.1146 4.88869L19.2246 5.75076L21.8194 2.72705L21.5649 6.79656L19.4062 3.19382L23.1146 4.88869Z" fill="#FFDE00"/>
<path d="M27.041 9.86431L23.1211 9.15017L26.6855 7.36949L24.8726 11.0218L24.2802 6.86377L27.041 9.86431Z" fill="#FFDE00"/>
<path d="M26.4675 16.8446L23.1797 14.5938L27.1604 14.4218L24.0156 17.0171L25.1704 12.979L26.4675 16.8446Z" fill="#FFDE00"/>
<path d="M21.5236 21.4049L19.3602 18.0589L23.0985 19.4376L19.1953 20.6169L21.8202 17.3381L21.5236 21.4049Z" fill="#FFDE00"/>
</g>
</g>
<defs>
<clipPath id="clip0_1119_8403">
<rect width="56" height="42" fill="white" transform="translate(0 0.471191)"/>
</clipPath>
</defs>
</svg>
