<svg width="56" height="43" viewBox="0 0 56 43" fill="none" xmlns="http://www.w3.org/2000/svg">
<g clip-path="url(#clip0_1119_8432)">
<g clip-path="url(#clip1_1119_8432)">
<mask id="mask0_1119_8432" style="mask-type:luminance" maskUnits="userSpaceOnUse" x="0" y="0" width="56" height="43">
<path d="M49 0.471191H7C3.13401 0.471191 0 3.6052 0 7.47119V35.4712C0 39.3372 3.13401 42.4712 7 42.4712H49C52.866 42.4712 56 39.3372 56 35.4712V7.47119C56 3.6052 52.866 0.471191 49 0.471191Z" fill="white"/>
</mask>
<g mask="url(#mask0_1119_8432)">
<path d="M0 0.471191H56V14.4712H0V0.471191Z" fill="#FF9933"/>
<path d="M0 14.4712H56V28.4712H0V14.4712Z" fill="#F4F4F4"/>
<path d="M0 28.4712H56V42.4712H0V28.4712Z" fill="#128807"/>
<path d="M28.0004 27.0716C31.0932 27.0716 33.6004 24.5644 33.6004 21.4716C33.6004 18.3788 31.0932 15.8716 28.0004 15.8716C24.9076 15.8716 22.4004 18.3788 22.4004 21.4716C22.4004 24.5644 24.9076 27.0716 28.0004 27.0716Z" fill="#000088"/>
<path d="M27.9996 26.3708C30.7058 26.3708 32.8996 24.177 32.8996 21.4708C32.8996 18.7646 30.7058 16.5708 27.9996 16.5708C25.2934 16.5708 23.0996 18.7646 23.0996 21.4708C23.0996 24.177 25.2934 26.3708 27.9996 26.3708Z" fill="#F4F4F4"/>
<path d="M27.9995 22.4507C28.5408 22.4507 28.9795 22.012 28.9795 21.4707C28.9795 20.9295 28.5408 20.4907 27.9995 20.4907C27.4583 20.4907 27.0195 20.9295 27.0195 21.4707C27.0195 22.012 27.4583 22.4507 27.9995 22.4507Z" fill="#000088"/>
<path d="M32.8246 22.3617C32.9626 22.3799 33.0892 22.2827 33.1074 22.1448C33.1255 22.0068 33.0283 21.8802 32.8904 21.862C32.7524 21.8439 32.6258 21.941 32.6076 22.079C32.5895 22.217 32.6866 22.3436 32.8246 22.3617Z" fill="#000088"/>
<path d="M28 26.3708L28.168 23.4308L28 22.0308L27.832 23.4308L28 26.3708Z" fill="#000088"/>
<path d="M32.431 23.5811C32.5596 23.6343 32.707 23.5733 32.7603 23.4447C32.8136 23.3161 32.7524 23.1687 32.6239 23.1154C32.4953 23.0622 32.3479 23.1233 32.2946 23.2518C32.2414 23.3804 32.3024 23.5278 32.431 23.5811Z" fill="#000088"/>
<path d="M26.7324 26.2043L27.6556 23.4079L27.8557 22.0122L27.3311 23.321L26.7324 26.2043Z" fill="#000088"/>
<path d="M31.7334 24.6553C31.8438 24.74 32.002 24.7192 32.0867 24.6088C32.1714 24.4984 32.1506 24.3402 32.0402 24.2555C31.9298 24.1707 31.7716 24.1916 31.6869 24.302C31.6021 24.4124 31.623 24.5706 31.7334 24.6553Z" fill="#000088"/>
<path d="M25.5488 25.7141L27.1644 23.252L27.7188 21.9556L26.8734 23.084L25.5488 25.7141Z" fill="#000088"/>
<path d="M30.7826 25.5133C30.8673 25.6238 31.0255 25.6446 31.1359 25.5599C31.2463 25.4751 31.2671 25.3169 31.1824 25.2065C31.0977 25.0961 30.9395 25.0753 30.8291 25.16C30.7187 25.2447 30.6978 25.4029 30.7826 25.5133Z" fill="#000088"/>
<path d="M24.5371 24.9358L26.7348 22.9757L27.606 21.8669L26.4973 22.7381L24.5371 24.9358Z" fill="#000088"/>
<path d="M29.6404 26.0954C29.6936 26.2239 29.841 26.285 29.9696 26.2317C30.0981 26.1784 30.1592 26.031 30.106 25.9025C30.0527 25.7739 29.9053 25.7128 29.7767 25.7661C29.6481 25.8193 29.5871 25.9668 29.6404 26.0954Z" fill="#000088"/>
<path d="M23.7539 23.9215L26.384 22.597L27.5124 21.7515L26.216 22.306L23.7539 23.9215Z" fill="#000088"/>
<path d="M28.387 26.3625C28.4051 26.5006 28.5316 26.5977 28.6697 26.5795C28.8077 26.5613 28.9047 26.4348 28.8866 26.2968C28.8684 26.1588 28.7419 26.0617 28.6039 26.0798C28.4659 26.098 28.3688 26.2246 28.387 26.3625Z" fill="#000088"/>
<path d="M23.2676 22.739L26.1509 22.1404L27.4597 21.6157L26.0639 21.8158L23.2676 22.739Z" fill="#000088"/>
<path d="M27.1077 26.2958C27.0895 26.4338 27.1866 26.5604 27.3246 26.5785C27.4626 26.5967 27.5892 26.4996 27.6073 26.3616C27.6255 26.2236 27.5284 26.097 27.3904 26.0789C27.2524 26.0607 27.1258 26.1578 27.1077 26.2958Z" fill="#000088"/>
<path d="M23.0996 21.4712L26.0396 21.6392L27.4396 21.4712L26.0396 21.3032L23.0996 21.4712Z" fill="#000088"/>
<path d="M25.8904 25.9013C25.8371 26.0298 25.8981 26.1772 26.0267 26.2305C26.1553 26.2838 26.3027 26.2227 26.356 26.0941C26.4093 25.9655 26.3482 25.8181 26.2196 25.7649C26.091 25.7116 25.9436 25.7727 25.8904 25.9013Z" fill="#000088"/>
<path d="M23.2656 20.2026L26.062 21.1258L27.4577 21.3259L26.1489 20.8013L23.2656 20.2026Z" fill="#000088"/>
<path d="M24.8158 25.2039C24.7311 25.3142 24.7518 25.4724 24.8623 25.5571C24.9727 25.6419 25.1309 25.6211 25.2156 25.5107C25.3004 25.4002 25.2795 25.242 25.1691 25.1573C25.0586 25.0726 24.9005 25.0934 24.8158 25.2039Z" fill="#000088"/>
<path d="M23.7559 19.021L26.218 20.6365L27.5144 21.191L26.386 20.3455L23.7559 19.021Z" fill="#000088"/>
<path d="M23.958 24.2527C23.8475 24.3375 23.8268 24.4957 23.9115 24.6061C23.9962 24.7165 24.1544 24.7374 24.2648 24.6526C24.3752 24.5679 24.3961 24.4097 24.3113 24.2993C24.2266 24.1889 24.0684 24.168 23.958 24.2527Z" fill="#000088"/>
<path d="M24.5352 18.0054L26.4952 20.2031L27.604 21.0742L26.7329 19.9655L24.5352 18.0054Z" fill="#000088"/>
<path d="M23.3764 23.1115C23.2478 23.1648 23.1867 23.3122 23.2399 23.4408C23.2932 23.5693 23.4406 23.6304 23.5692 23.5772C23.6978 23.5239 23.7588 23.3765 23.7056 23.2479C23.6524 23.1193 23.5049 23.0583 23.3764 23.1115Z" fill="#000088"/>
<path d="M25.5508 17.228L26.8753 19.8581L27.7208 20.9865L27.1663 19.6901L25.5508 17.228Z" fill="#000088"/>
<path d="M23.1078 21.8589C22.9698 21.877 22.8727 22.0036 22.8909 22.1416C22.909 22.2796 23.0356 22.3767 23.1736 22.3585C23.3116 22.3403 23.4087 22.2138 23.3905 22.0758C23.3723 21.9378 23.2458 21.8407 23.1078 21.8589Z" fill="#000088"/>
<path d="M26.7324 16.7378L27.3311 19.6211L27.8557 20.93L27.6557 19.5342L26.7324 16.7378Z" fill="#000088"/>
<path d="M23.1755 20.5798C23.0376 20.5616 22.9109 20.6588 22.8928 20.7968C22.8746 20.9347 22.9718 21.0614 23.1097 21.0795C23.2477 21.0977 23.3743 21.0005 23.3925 20.8626C23.4107 20.7246 23.3135 20.598 23.1755 20.5798Z" fill="#000088"/>
<path d="M28 16.5708L27.832 19.5108L28 20.9108L28.168 19.5108L28 16.5708Z" fill="#000088"/>
<path d="M23.5692 19.3615C23.4407 19.3083 23.2932 19.3694 23.24 19.4979C23.1867 19.6265 23.2477 19.7739 23.3763 19.8272C23.5049 19.8804 23.6523 19.8194 23.7056 19.6908C23.7589 19.5622 23.6978 19.4148 23.5692 19.3615Z" fill="#000088"/>
<path d="M29.2678 16.738L28.3446 19.5344L28.1445 20.9301L28.6692 19.6213L29.2678 16.738Z" fill="#000088"/>
<path d="M24.2667 18.287C24.1563 18.2022 23.9981 18.2231 23.9134 18.3335C23.8287 18.4438 23.8495 18.602 23.9599 18.6868C24.0704 18.7715 24.2285 18.7507 24.3133 18.6403C24.398 18.5299 24.3772 18.3717 24.2667 18.287Z" fill="#000088"/>
<path d="M30.4512 17.2271L28.8358 19.6892L28.2812 20.9856L29.1268 19.8572L30.4512 17.2271Z" fill="#000088"/>
<path d="M25.2176 17.4289C25.1329 17.3185 24.9747 17.2977 24.8642 17.3824C24.7538 17.4671 24.733 17.6253 24.8177 17.7357C24.9024 17.8461 25.0606 17.867 25.171 17.7823C25.2815 17.6975 25.3023 17.5393 25.2176 17.4289Z" fill="#000088"/>
<path d="M31.4633 18.0063L29.2657 19.9665L28.3945 21.0752L29.5033 20.2041L31.4633 18.0063Z" fill="#000088"/>
<path d="M26.3579 16.8465C26.3046 16.7179 26.1573 16.6569 26.0287 16.7102C25.9001 16.7634 25.8391 16.9109 25.8923 17.0395C25.9455 17.168 26.093 17.2291 26.2215 17.1758C26.3501 17.1225 26.4112 16.9751 26.3579 16.8465Z" fill="#000088"/>
<path d="M32.2448 19.0212L29.6147 20.3457L28.4863 21.1912L29.7827 20.6367L32.2448 19.0212Z" fill="#000088"/>
<path d="M27.6112 16.58C27.5931 16.442 27.4665 16.3449 27.3285 16.363C27.1905 16.3812 27.0934 16.5078 27.1116 16.6458C27.1298 16.7838 27.2563 16.8809 27.3943 16.8627C27.5323 16.8445 27.6294 16.718 27.6112 16.58Z" fill="#000088"/>
<path d="M32.7312 20.2036L29.8479 20.8023L28.5391 21.3269L29.9348 21.1268L32.7312 20.2036Z" fill="#000088"/>
<path d="M28.8925 16.646C28.9107 16.508 28.8135 16.3814 28.6755 16.3633C28.5375 16.3451 28.4109 16.4422 28.3928 16.5802C28.3746 16.7182 28.4718 16.8448 28.6097 16.8629C28.7477 16.8811 28.8743 16.784 28.8925 16.646Z" fill="#000088"/>
<path d="M32.9005 21.471L29.9605 21.303L28.5605 21.471L29.9605 21.639L32.9005 21.471Z" fill="#000088"/>
<path d="M30.1099 17.0414C30.1632 16.9128 30.1021 16.7654 29.9735 16.7121C29.8449 16.6589 29.6975 16.7199 29.6443 16.8485C29.591 16.9771 29.652 17.1245 29.7806 17.1778C29.9092 17.231 30.0566 17.1699 30.1099 17.0414Z" fill="#000088"/>
<path d="M32.7331 22.7392L29.9367 21.816L28.541 21.616L29.8498 22.1405L32.7331 22.7392Z" fill="#000088"/>
<path d="M31.1824 17.7379C31.2671 17.6275 31.2463 17.4693 31.1359 17.3846C31.0255 17.2999 30.8673 17.3207 30.7826 17.4311C30.6978 17.5415 30.7187 17.6997 30.8291 17.7844C30.9395 17.8691 31.0977 17.8484 31.1824 17.7379Z" fill="#000088"/>
<path d="M32.2429 23.9217L29.7808 22.3062L28.4844 21.7517L29.6128 22.5972L32.2429 23.9217Z" fill="#000088"/>
<path d="M32.0402 18.6897C32.1506 18.605 32.1714 18.4468 32.0867 18.3364C32.002 18.226 31.8438 18.2051 31.7334 18.2899C31.623 18.3746 31.6021 18.5328 31.6869 18.6432C31.7716 18.7537 31.9298 18.7744 32.0402 18.6897Z" fill="#000088"/>
<path d="M31.4634 24.9363L29.5033 22.7386L28.3945 21.8674L29.2657 22.9762L31.4634 24.9363Z" fill="#000088"/>
<path d="M32.6219 19.83C32.7505 19.7768 32.8115 19.6294 32.7583 19.5008C32.7051 19.3722 32.5576 19.3112 32.4291 19.3645C32.3005 19.4177 32.2394 19.5651 32.2927 19.6937C32.3459 19.8223 32.4933 19.8833 32.6219 19.83Z" fill="#000088"/>
<path d="M30.4493 25.7141L29.1248 23.084L28.2793 21.9556L28.8338 23.252L30.4493 25.7141Z" fill="#000088"/>
<path d="M32.8904 21.0832C33.0284 21.065 33.1255 20.9384 33.1073 20.8004C33.0892 20.6624 32.9626 20.5653 32.8246 20.5835C32.6866 20.6017 32.5895 20.7282 32.6077 20.8662C32.6259 21.0042 32.7524 21.1013 32.8904 21.0832Z" fill="#000088"/>
<path d="M29.2678 26.2044L28.6692 23.3211L28.1445 22.0122L28.3446 23.408L29.2678 26.2044Z" fill="#000088"/>
</g>
</g>
</g>
<defs>
<clipPath id="clip0_1119_8432">
<rect width="56" height="42" fill="white" transform="translate(0 0.471191)"/>
</clipPath>
<clipPath id="clip1_1119_8432">
<rect width="56" height="42" fill="white" transform="translate(0 0.471191)"/>
</clipPath>
</defs>
</svg>
