<svg width="56" height="43" viewBox="0 0 56 43" fill="none" xmlns="http://www.w3.org/2000/svg">
<g clip-path="url(#clip0_1119_8283)">
<mask id="mask0_1119_8283" style="mask-type:luminance" maskUnits="userSpaceOnUse" x="0" y="0" width="56" height="43">
<path d="M49 0.471191H7C3.13401 0.471191 0 3.6052 0 7.47119V35.4712C0 39.3372 3.13401 42.4712 7 42.4712H49C52.866 42.4712 56 39.3372 56 35.4712V7.47119C56 3.6052 52.866 0.471191 49 0.471191Z" fill="white"/>
</mask>
<g mask="url(#mask0_1119_8283)">
<path d="M0 0.471191H56V42.4712H0V0.471191Z" fill="#012169"/>
<path d="M6.5625 0.471191L27.9125 16.3087L49.175 0.471191H56V5.89619L35 21.5587L56 37.1337V42.4712H49L28 26.8087L7.0875 42.4712H0V37.2212L20.9125 21.6462L0 6.07119V0.471191H6.5625Z" fill="#F4F4F4"/>
<path d="M37.1 25.0587L56 38.9712V42.4712L32.2875 25.0587H37.1ZM21 26.8087L21.525 29.8712L4.725 42.4712H0L21 26.8087ZM56 0.471191V0.733691L34.2125 17.1837L34.3875 13.3337L51.625 0.471191H56ZM0 0.471191L20.9125 15.8712H15.6625L0 4.14619V0.471191Z" fill="#C8102E"/>
<path d="M21.0875 0.471191V42.4712H35.0875V0.471191H21.0875ZM0 14.4712V28.4712H56V14.4712H0Z" fill="#F4F4F4"/>
<path d="M0 17.3587V25.7587H56V17.3587H0ZM23.8875 0.471191V42.4712H32.2875V0.471191H23.8875Z" fill="#C8102E"/>
</g>
</g>
<defs>
<clipPath id="clip0_1119_8283">
<rect width="56" height="42" fill="white" transform="translate(0 0.471191)"/>
</clipPath>
</defs>
</svg>
