<svg width="56" height="43" viewBox="0 0 56 43" fill="none" xmlns="http://www.w3.org/2000/svg">
<g clip-path="url(#clip0_1119_8268)">
<mask id="mask0_1119_8268" style="mask-type:luminance" maskUnits="userSpaceOnUse" x="0" y="0" width="56" height="43">
<path d="M49 0.471191H7C3.13401 0.471191 0 3.6052 0 7.47119V35.4712C0 39.3372 3.13401 42.4712 7 42.4712H49C52.866 42.4712 56 39.3372 56 35.4712V7.47119C56 3.6052 52.866 0.471191 49 0.471191Z" fill="white"/>
</mask>
<g mask="url(#mask0_1119_8268)">
<path fill-rule="evenodd" clip-rule="evenodd" d="M0 0.471191H79.8V3.70327H0V0.471191ZM0 6.93526H79.8V10.1673H0V6.93526ZM0 13.3911H79.8V16.6313H0V13.3911ZM0 19.8552H79.8V23.0872H0V19.8552ZM0 26.3193H79.8V29.5513H0V26.3193ZM0 32.7751H79.8V36.0071H0V32.7751ZM0 39.2392H79.8V42.4712H0V39.2392Z" fill="#BD3D44"/>
<path fill-rule="evenodd" clip-rule="evenodd" d="M0 3.70361H79.8V6.9356H0V3.70361ZM0 10.1676H79.8V13.3914H0V10.1676ZM0 16.6235H79.8V19.8555H0V16.6235ZM0 23.0876H79.8V26.3196H0V23.0876ZM0 29.5516H79.8V32.7836H0V29.5516ZM0 36.0075H79.8V39.2395H0V36.0075Z" fill="#F4F4F4"/>
<path fill-rule="evenodd" clip-rule="evenodd" d="M0 0.471191H31.9183V23.0872H0V0.471191Z" fill="#192F5D"/>
<path fill-rule="evenodd" clip-rule="evenodd" d="M2.65816 1.43921L2.95348 2.3332H3.88868L3.1339 2.88287L3.42108 3.78517L2.65816 3.22736L1.90348 3.77695L2.19056 2.88287L1.42773 2.3332H2.3793L2.65816 1.43921ZM7.982 1.43921L8.26907 2.3332H9.21246L8.44953 2.88287L8.73667 3.78517L7.982 3.22736L7.21907 3.77695L7.50621 2.88287L6.7515 2.3332H7.68667L7.982 1.43921ZM13.2977 1.43921L13.5929 2.33328H14.5199L13.7653 2.88296L14.0523 3.78526L13.2894 3.22745L12.5347 3.77703L12.8218 2.88296L12.0589 2.33328H13.0023L13.2977 1.43921ZM18.6215 1.43921L18.9085 2.33328H19.8519L19.089 2.88296L19.3843 3.78526L18.6214 3.22745L17.8586 3.77703L18.1539 2.88296L17.391 2.33328H18.3262L18.6215 1.43921ZM23.9371 1.43921L24.2324 2.33328H25.1676L24.4128 2.88296L24.7 3.78526L23.937 3.22745L23.1824 3.77703L23.4695 2.88296L22.7148 2.33328H23.65L23.9371 1.43921ZM29.2609 1.43921L29.548 2.33328H30.4914L29.7285 2.88296L30.0238 3.78526L29.2609 3.22745L28.498 3.77703L28.7933 2.88296L28.0304 2.33328H28.9738L29.2609 1.43921ZM5.3242 3.7031L5.61128 4.59735H6.55463L5.79171 5.14685L6.07066 6.0411L5.33233 5.49143L4.56951 6.04101L4.84015 5.14693L4.10191 4.59726H5.03711L5.3242 3.7031ZM10.6398 3.7031L10.9352 4.59735H11.8702L11.1074 5.14685L11.4028 6.0411L10.6398 5.49143L9.8769 6.04101L10.1722 5.14693L9.4093 4.59726H10.3526L10.6398 3.7031ZM15.9637 3.7031L16.2507 4.59735H17.1941L16.4312 5.14685L16.7183 6.0411L15.9636 5.49143L15.2008 6.04101L15.4878 5.14702L14.7332 4.59735H15.6684L15.9637 3.7031ZM21.2793 3.7031L21.5746 4.59735H22.5097L21.7468 5.14685L22.0421 6.0411L21.2792 5.49143L20.5245 6.04101L20.8117 5.14693L20.0488 4.59726H21.0003L21.2793 3.7031ZM26.6031 3.7031L26.8901 4.59735H27.8336L27.0707 5.14685L27.3577 6.0411L26.6031 5.49143L25.8401 6.04101L26.1273 5.14693L25.3727 4.59726H26.3077L26.6031 3.7031ZM2.65816 5.9592L2.95348 6.86972H3.88868L3.1339 7.41931L3.42108 8.31348L2.65816 7.75565L1.90348 8.31348L2.19056 7.41108L1.42773 6.86158H2.3793L2.65816 5.9592ZM7.982 5.9592L8.26907 6.86132H9.21246L8.44953 7.41091L8.73667 8.30515L7.982 7.74725L7.21907 8.30508L7.50621 7.40278L6.7515 6.85318H7.68667L7.982 5.9592ZM13.2977 5.9592L13.5929 6.8615H14.5199L13.7653 7.41108L14.0523 8.30536L13.2894 7.74746L12.5347 8.30522L12.8218 7.40295L12.0589 6.85336H13.0023L13.2977 5.9592ZM18.6215 5.9592L18.9085 6.8615H19.8519L19.089 7.41108L19.3843 8.30536L18.6214 7.74746L17.8586 8.30522L18.1539 7.40295L17.391 6.85336H18.3262L18.6215 5.9592ZM23.9371 5.9592L24.2324 6.8615H25.1676L24.4128 7.411L24.7 8.30522L23.937 7.74732L23.1824 8.30515L23.4695 7.40286L22.7148 6.85328H23.65L23.9371 5.9592ZM29.2609 5.9592L29.548 6.8615H30.4914L29.7285 7.41108L30.0238 8.30536L29.2609 7.74746L28.498 8.30522L28.7933 7.40295L28.0304 6.85336H28.9738L29.2609 5.9592ZM5.3242 8.22318L5.61128 9.11736H6.55463L5.79171 9.66686L6.07889 10.5692L5.3242 10.0114L4.56128 10.561L4.84838 9.66693L4.09368 9.11736H5.02898L5.3242 8.22318ZM10.6398 8.22318L10.9352 9.11736H11.8702L11.1074 9.66686L11.4028 10.5692L10.6398 10.0114L9.8769 10.561L10.1722 9.66693L9.4093 9.11736H10.3526L10.6398 8.22318ZM15.9637 8.22318L16.2507 9.11736H17.1941L16.4312 9.66686L16.7183 10.5692L15.9636 10.0114L15.2008 10.561L15.4878 9.66693L14.7332 9.11736H15.6684L15.9637 8.22318ZM21.2793 8.22318L21.5746 9.11736H22.5097L21.7551 9.66686L22.0421 10.5692L21.2792 10.0114L20.5245 10.561L20.8117 9.66693L20.0488 9.11736H21.0003L21.2793 8.22318ZM26.6031 8.22318L26.8901 9.11736H27.8336L27.0707 9.66686L27.3577 10.5692L26.6031 10.0114L25.8401 10.561L26.1273 9.66693L25.3727 9.11736H26.3077L26.6031 8.22318ZM2.65816 10.4873L2.95348 11.3814H3.88868L3.1339 11.9309L3.42108 12.8333L2.65816 12.2755L1.90348 12.8251L2.19056 11.931L1.42773 11.3814H2.3793L2.65816 10.4873ZM7.982 10.4873L8.26907 11.3814H9.21246L8.44953 11.9309L8.73667 12.8251L7.982 12.2755L7.21907 12.8251L7.50621 11.931L6.7515 11.3814H7.68667L7.982 10.4873ZM13.2977 10.4873L13.5929 11.3814H14.5199L13.7653 11.9309L14.0523 12.8333L13.2894 12.2755L12.5347 12.8251L12.8218 11.931L12.0589 11.3814H13.0023L13.2977 10.4873ZM18.6215 10.4873L18.9085 11.3814H19.8519L19.089 11.9309L19.3843 12.8333L18.6214 12.2755L17.8586 12.8251L18.1539 11.931L17.391 11.3814H18.3262L18.6215 10.4873ZM23.9371 10.4873L24.2324 11.3814H25.1676L24.4128 11.9309L24.7 12.8333L23.937 12.2755L23.1824 12.8251L23.4695 11.931L22.7148 11.3814H23.65L23.9371 10.4873ZM29.2609 10.4873L29.548 11.3814H30.4914L29.7285 11.9309L30.0238 12.8333L29.2609 12.2755L28.498 12.8251L28.7933 11.931L28.0304 11.3814H28.9738L29.2609 10.4873ZM5.3242 12.7513L5.61128 13.6455H6.55463L5.79171 14.195L6.07889 15.0892L5.3242 14.5314L4.56128 15.0892L4.84838 14.1868L4.09368 13.6373H5.02898L5.3242 12.7513ZM10.6398 12.7513L10.9352 13.6455H11.8702L11.1074 14.195L11.4028 15.0892L10.6398 14.5314L9.8769 15.0892L10.1722 14.1868L9.4093 13.6373H10.3526L10.6398 12.7513ZM15.9637 12.7513L16.2507 13.6455H17.1941L16.4312 14.195L16.7183 15.0892L15.9636 14.5314L15.2008 15.0892L15.4878 14.1868L14.7332 13.6373H15.6684L15.9637 12.7513ZM21.2793 12.7513L21.5746 13.6455H22.5097L21.7551 14.195L22.0421 15.0892L21.2792 14.5314L20.5245 15.0892L20.8117 14.1868L20.0488 13.6373H21.0003L21.2793 12.7513ZM26.6031 12.7513L26.8901 13.6455H27.8336L27.0707 14.195L27.3577 15.0892L26.6031 14.5314L25.8401 15.0892L26.1273 14.1868L25.3727 13.6373H26.3077L26.6031 12.7513ZM2.65816 15.0072L2.95348 15.9095H3.88868L3.1339 16.459L3.42108 17.345L2.65816 16.7955L1.90348 17.345L2.19056 16.4509L1.42773 15.9013H2.3793L2.65816 15.0072ZM7.982 15.0072L8.26907 15.9095H9.21246L8.44953 16.459L8.74493 17.345L7.98193 16.7955L7.21907 17.345L7.5144 16.4509L6.7515 15.9013H7.68667L7.982 15.0072ZM13.2977 15.0072L13.5929 15.9095H14.5199L13.7653 16.459L14.0523 17.345L13.2894 16.7955L12.5347 17.345L12.8218 16.4509L12.0589 15.9013H13.0023L13.2977 15.0072ZM18.6215 15.0072L18.9085 15.9095H19.8519L19.089 16.459L19.3843 17.345L18.6214 16.7955L17.8586 17.345L18.1539 16.4509L17.391 15.9013H18.3262L18.6215 15.0072ZM23.9371 15.0072L24.2324 15.9095H25.1676L24.4128 16.459L24.7 17.345L23.937 16.7955L23.1824 17.345L23.4695 16.4509L22.7148 15.9013H23.65L23.9371 15.0072ZM29.2609 15.0072L29.548 15.9095H30.4914L29.7285 16.459L30.0238 17.345L29.2609 16.7955L28.498 17.345L28.7933 16.4509L28.0304 15.9013H28.9738L29.2609 15.0072ZM5.3242 17.2712L5.61128 18.1654H6.55463L5.79171 18.7149L6.07889 19.6174L5.3242 19.0595L4.56128 19.609L4.84838 18.7149L4.09368 18.1654H5.02898L5.3242 17.2712ZM10.6398 17.2712L10.9352 18.1654H11.8702L11.1074 18.7149L11.4028 19.6174L10.6398 19.0595L9.8769 19.609L10.1722 18.7149L9.4093 18.1654H10.3526L10.6398 17.2712ZM15.9637 17.2712L16.2507 18.1654H17.1941L16.4312 18.7149L16.7183 19.6174L15.9636 19.0595L15.2008 19.609L15.4878 18.7149L14.7332 18.1654H15.6684L15.9637 17.2712ZM21.2793 17.2712L21.5746 18.1654H22.5097L21.7551 18.7149L22.0421 19.6174L21.2792 19.0595L20.5245 19.609L20.8117 18.7149L20.0488 18.1654H21.0003L21.2793 17.2712ZM26.6031 17.2712L26.8901 18.1654H27.8336L27.0707 18.7149L27.3577 19.6174L26.6031 19.0595L25.8401 19.609L26.1273 18.7149L25.3727 18.1654H26.3077L26.6031 17.2712ZM2.65816 19.5353L2.95348 20.4294H3.88868L3.1339 20.979L3.42108 21.8732L2.65816 21.3236L1.90348 21.8731L2.19056 20.9708L1.42773 20.4212H2.3793L2.65816 19.5353ZM7.982 19.5353L8.26907 20.4294H9.21246L8.44953 20.979L8.74493 21.8732L7.98193 21.3236L7.21907 21.8731L7.5144 20.9708L6.7515 20.4212H7.68667L7.982 19.5353ZM13.2977 19.5353L13.5929 20.4294H14.5199L13.7816 20.979L14.0687 21.8732L13.3058 21.3236L12.5511 21.8731L12.8383 20.9708L12.0753 20.4212H13.0187L13.2977 19.5353ZM18.6215 19.5353L18.9085 20.4294H19.8519L19.089 20.979L19.3843 21.8732L18.6214 21.3236L17.8586 21.8731L18.1539 20.9708L17.391 20.4212H18.3262L18.6215 19.5353ZM23.9371 19.5353L24.2324 20.4294H25.1676L24.4128 20.979L24.7 21.8732L23.937 21.3236L23.1824 21.8731L23.4695 20.9708L22.7148 20.4212H23.65L23.9371 19.5353ZM29.2609 19.5353L29.548 20.4294H30.4914L29.7285 20.979L30.0238 21.8732L29.2609 21.3236L28.498 21.8731L28.7933 20.9708L28.0304 20.4212H28.9738L29.2609 19.5353Z" fill="#F4F4F4"/>
</g>
</g>
<defs>
<clipPath id="clip0_1119_8268">
<rect width="56" height="42" fill="white" transform="translate(0 0.471191)"/>
</clipPath>
</defs>
</svg>
